{
	"asset":{
		"generator":"Khronos glTF Blender I/O v4.0.44",
		"version":"2.0"
	},
	"extensionsUsed":[
		"KHR_materials_specular",
		"KHR_materials_ior"
	],
	"scene":0,
	"scenes":[
		{
			"name":"Scene",
			"nodes":[
				1
			]
		}
	],
	"nodes":[
		{
			"mesh":0,
			"name":"acacia tree vol 15-00",
			"rotation":[
				0.6691101789474487,
				0.2286737710237503,
				-0.22867383062839508,
				0.6691100001335144
			],
			"scale":[
				2.380689859390259,
				2.380689859390259,
				2.380690336227417
			],
			"translation":[
				25.8199405670166,
				-347.4913024902344,
				5.81973123550415
			]
		},
		{
			"children":[
				0
			],
			"name":"Group001",
			"scale":[
				0.009999999776482582,
				0.009999999776482582,
				0.009999999776482582
			],
			"translation":[
				-0.25819945335388184,
				3.4749133586883545,
				-0.058197326958179474
			]
		}
	],
	"animations":[
		{
			"channels":[
				{
					"sampler":0,
					"target":{
						"node":0,
						"path":"translation"
					}
				},
				{
					"sampler":1,
					"target":{
						"node":0,
						"path":"rotation"
					}
				},
				{
					"sampler":2,
					"target":{
						"node":0,
						"path":"scale"
					}
				}
			],
			"name":"acacia tree vol 15-00|acacia tree vol 15-00|acacia tree vol 15-",
			"samplers":[
				{
					"input":18,
					"interpolation":"STEP",
					"output":19
				},
				{
					"input":18,
					"interpolation":"STEP",
					"output":20
				},
				{
					"input":18,
					"interpolation":"STEP",
					"output":21
				}
			]
		}
	],
	"materials":[
		{
			"doubleSided":true,
			"extensions":{
				"KHR_materials_specular":{
					"specularColorFactor":[
						2.0,
						2.0,
						2.0
					]
				},
				"KHR_materials_ior":{
					"ior":1.4500000476837158
				}
			},
			"name":"acacia tree vol 15 leaf",
			"pbrMetallicRoughness":{
				"baseColorTexture":{
					"index":0
				},
				"metallicFactor":0,
				"roughnessFactor":0.5527864098548889
			}
		},
		{
			"doubleSided":true,
			"extensions":{
				"KHR_materials_specular":{
					"specularColorFactor":[
						2.0,
						2.0,
						2.0
					]
				},
				"KHR_materials_ior":{
					"ior":1.4500000476837158
				}
			},
			"name":"acacia tree vol 15 leaf1",
			"pbrMetallicRoughness":{
				"baseColorTexture":{
					"index":1
				},
				"metallicFactor":0,
				"roughnessFactor":0.5527864098548889
			}
		},
		{
			"doubleSided":true,
			"extensions":{
				"KHR_materials_specular":{
					"specularColorFactor":[
						2.0,
						2.0,
						2.0
					]
				},
				"KHR_materials_ior":{
					"ior":1.4500000476837158
				}
			},
			"name":"acacia tree vol 15 bark",
			"pbrMetallicRoughness":{
				"metallicFactor":0,
				"roughnessFactor":0.5527864098548889
			}
		}
	],
	"meshes":[
		{
			"name":"Mesh",
			"primitives":[
				{
					"attributes":{
						"COLOR_0":0,
						"POSITION":1,
						"NORMAL":2,
						"TEXCOORD_0":3,
						"TEXCOORD_1":4
					},
					"indices":5,
					"material":0
				},
				{
					"attributes":{
						"COLOR_0":6,
						"POSITION":7,
						"NORMAL":8,
						"TEXCOORD_0":9,
						"TEXCOORD_1":10
					},
					"indices":11,
					"material":1
				},
				{
					"attributes":{
						"COLOR_0":12,
						"POSITION":13,
						"NORMAL":14,
						"TEXCOORD_0":15,
						"TEXCOORD_1":16
					},
					"indices":17,
					"material":2
				}
			]
		}
	],
	"textures":[
		{
			"sampler":0,
			"source":0
		},
		{
			"sampler":0,
			"source":0
		}
	],
	"images":[
		{
			"mimeType":"image/jpeg",
			"name":"grass",
			"uri":"grass.jpg"
		}
	],
	"accessors":[
		{
			"bufferView":0,
			"componentType":5123,
			"count":306036,
			"normalized":true,
			"type":"VEC4"
		},
		{
			"bufferView":1,
			"componentType":5126,
			"count":306036,
			"max":[
				512.921875,
				458.99505615234375,
				-201.80972290039062
			],
			"min":[
				-423.0762939453125,
				-538.3474731445312,
				-694.982666015625
			],
			"type":"VEC3"
		},
		{
			"bufferView":2,
			"componentType":5126,
			"count":306036,
			"type":"VEC3"
		},
		{
			"bufferView":3,
			"componentType":5126,
			"count":306036,
			"type":"VEC2"
		},
		{
			"bufferView":4,
			"componentType":5126,
			"count":306036,
			"type":"VEC2"
		},
		{
			"bufferView":5,
			"componentType":5125,
			"count":714084,
			"type":"SCALAR"
		},
		{
			"bufferView":6,
			"componentType":5123,
			"count":120309,
			"normalized":true,
			"type":"VEC4"
		},
		{
			"bufferView":7,
			"componentType":5126,
			"count":120309,
			"max":[
				498.6268310546875,
				444.433837890625,
				-212.3450164794922
			],
			"min":[
				-422.5572204589844,
				-520.153076171875,
				-688.9959716796875
			],
			"type":"VEC3"
		},
		{
			"bufferView":8,
			"componentType":5126,
			"count":120309,
			"type":"VEC3"
		},
		{
			"bufferView":9,
			"componentType":5126,
			"count":120309,
			"type":"VEC2"
		},
		{
			"bufferView":10,
			"componentType":5126,
			"count":120309,
			"type":"VEC2"
		},
		{
			"bufferView":11,
			"componentType":5125,
			"count":309366,
			"type":"SCALAR"
		},
		{
			"bufferView":12,
			"componentType":5123,
			"count":584554,
			"normalized":true,
			"type":"VEC4"
		},
		{
			"bufferView":13,
			"componentType":5126,
			"count":584554,
			"max":[
				488.0108947753906,
				433.4499206542969,
				2.860770564439008e-06
			],
			"min":[
				-404.7153015136719,
				-505.7230224609375,
				-676.5455322265625
			],
			"type":"VEC3"
		},
		{
			"bufferView":14,
			"componentType":5126,
			"count":584554,
			"type":"VEC3"
		},
		{
			"bufferView":15,
			"componentType":5126,
			"count":584554,
			"type":"VEC2"
		},
		{
			"bufferView":16,
			"componentType":5126,
			"count":584554,
			"type":"VEC2"
		},
		{
			"bufferView":17,
			"componentType":5125,
			"count":1996500,
			"type":"SCALAR"
		},
		{
			"bufferView":18,
			"componentType":5126,
			"count":2,
			"max":[
				0.06666666666666667
			],
			"min":[
				0.03333333333333333
			],
			"type":"SCALAR"
		},
		{
			"bufferView":19,
			"componentType":5126,
			"count":2,
			"type":"VEC3"
		},
		{
			"bufferView":20,
			"componentType":5126,
			"count":2,
			"type":"VEC4"
		},
		{
			"bufferView":21,
			"componentType":5126,
			"count":2,
			"type":"VEC3"
		}
	],
	"bufferViews":[
		{
			"buffer":0,
			"byteLength":2448288,
			"byteOffset":0,
			"target":34962
		},
		{
			"buffer":0,
			"byteLength":3672432,
			"byteOffset":2448288,
			"target":34962
		},
		{
			"buffer":0,
			"byteLength":3672432,
			"byteOffset":6120720,
			"target":34962
		},
		{
			"buffer":0,
			"byteLength":2448288,
			"byteOffset":9793152,
			"target":34962
		},
		{
			"buffer":0,
			"byteLength":2448288,
			"byteOffset":12241440,
			"target":34962
		},
		{
			"buffer":0,
			"byteLength":2856336,
			"byteOffset":14689728,
			"target":34963
		},
		{
			"buffer":0,
			"byteLength":962472,
			"byteOffset":17546064,
			"target":34962
		},
		{
			"buffer":0,
			"byteLength":1443708,
			"byteOffset":18508536,
			"target":34962
		},
		{
			"buffer":0,
			"byteLength":1443708,
			"byteOffset":19952244,
			"target":34962
		},
		{
			"buffer":0,
			"byteLength":962472,
			"byteOffset":21395952,
			"target":34962
		},
		{
			"buffer":0,
			"byteLength":962472,
			"byteOffset":22358424,
			"target":34962
		},
		{
			"buffer":0,
			"byteLength":1237464,
			"byteOffset":23320896,
			"target":34963
		},
		{
			"buffer":0,
			"byteLength":4676432,
			"byteOffset":24558360,
			"target":34962
		},
		{
			"buffer":0,
			"byteLength":7014648,
			"byteOffset":29234792,
			"target":34962
		},
		{
			"buffer":0,
			"byteLength":7014648,
			"byteOffset":36249440,
			"target":34962
		},
		{
			"buffer":0,
			"byteLength":4676432,
			"byteOffset":43264088,
			"target":34962
		},
		{
			"buffer":0,
			"byteLength":4676432,
			"byteOffset":47940520,
			"target":34962
		},
		{
			"buffer":0,
			"byteLength":7986000,
			"byteOffset":52616952,
			"target":34963
		},
		{
			"buffer":0,
			"byteLength":8,
			"byteOffset":60602952
		},
		{
			"buffer":0,
			"byteLength":24,
			"byteOffset":60602960
		},
		{
			"buffer":0,
			"byteLength":32,
			"byteOffset":60602984
		},
		{
			"buffer":0,
			"byteLength":24,
			"byteOffset":60603016
		}
	],
	"samplers":[
		{
			"magFilter":9729,
			"minFilter":9987
		}
	],
	"buffers":[
		{
			"byteLength":60603040,
			"uri":"tree3.bin"
		}
	]
}
