{
	"asset":{
		"generator":"Khronos glTF Blender I/O v4.0.44",
		"version":"2.0"
	},
	"extensionsUsed":[
		"KHR_materials_transmission",
		"KHR_materials_specular"
	],
	"scene":0,
	"scenes":[
		{
			"name":"Scene",
			"nodes":[
				0
			]
		}
	],
	"nodes":[
		{
			"mesh":0,
			"name":"12271_Kangaroo_v1_L3",
			"rotation":[
				-0.0006892085075378418,
				0,
				0,
				1
			]
		}
	],
	"materials":[
		{
			"doubleSided":true,
			"extensions":{
				"KHR_materials_transmission":{
					"transmissionFactor":1
				},
				"KHR_materials_specular":{
					"specularFactor":0.36000001430511475
				}
			},
			"name":"Eyes",
			"pbrMetallicRoughness":{
				"baseColorTexture":{
					"index":0
				},
				"metallicFactor":0,
				"roughnessFactor":0.7697827219963074
			}
		},
		{
			"doubleSided":true,
			"extensions":{
				"KHR_materials_transmission":{
					"transmissionFactor":1
				},
				"KHR_materials_specular":{
					"specularFactor":0.18000000715255737
				}
			},
			"name":"Kangaroo",
			"pbrMetallicRoughness":{
				"baseColorTexture":{
					"index":1
				},
				"metallicFactor":0,
				"roughnessFactor":0.8999999761581421
			}
		}
	],
	"meshes":[
		{
			"name":"12271_Kangaroo_v1_L3",
			"primitives":[
				{
					"attributes":{
						"POSITION":0,
						"NORMAL":1,
						"TEXCOORD_0":2
					},
					"indices":3,
					"material":0
				},
				{
					"attributes":{
						"POSITION":4,
						"NORMAL":5,
						"TEXCOORD_0":6
					},
					"indices":7,
					"material":1
				}
			]
		}
	],
	"textures":[
		{
			"sampler":0,
			"source":0
		},
		{
			"sampler":0,
			"source":0
		}
	],
	"images":[
		{
			"mimeType":"image/jpeg",
			"name":"Kangaroo_diff",
			"uri":"Kangaroo_diff.jpg"
		}
	],
	"accessors":[
		{
			"bufferView":0,
			"componentType":5126,
			"count":4100,
			"max":[
				74.4281005859375,
				187.75149536132812,
				9.9443998336792
			],
			"min":[
				64.30280303955078,
				177.6457977294922,
				-9.9443998336792
			],
			"type":"VEC3"
		},
		{
			"bufferView":1,
			"componentType":5126,
			"count":4100,
			"type":"VEC3"
		},
		{
			"bufferView":2,
			"componentType":5126,
			"count":4100,
			"type":"VEC2"
		},
		{
			"bufferView":3,
			"componentType":5123,
			"count":23808,
			"type":"SCALAR"
		},
		{
			"bufferView":4,
			"componentType":5126,
			"count":30196,
			"max":[
				93.3635025024414,
				212.13490295410156,
				33.86090087890625
			],
			"min":[
				-217.172607421875,
				0.09889999777078629,
				-33.86090087890625
			],
			"type":"VEC3"
		},
		{
			"bufferView":5,
			"componentType":5126,
			"count":30196,
			"type":"VEC3"
		},
		{
			"bufferView":6,
			"componentType":5126,
			"count":30196,
			"type":"VEC2"
		},
		{
			"bufferView":7,
			"componentType":5123,
			"count":168384,
			"type":"SCALAR"
		}
	],
	"bufferViews":[
		{
			"buffer":0,
			"byteLength":49200,
			"byteOffset":0,
			"target":34962
		},
		{
			"buffer":0,
			"byteLength":49200,
			"byteOffset":49200,
			"target":34962
		},
		{
			"buffer":0,
			"byteLength":32800,
			"byteOffset":98400,
			"target":34962
		},
		{
			"buffer":0,
			"byteLength":47616,
			"byteOffset":131200,
			"target":34963
		},
		{
			"buffer":0,
			"byteLength":362352,
			"byteOffset":178816,
			"target":34962
		},
		{
			"buffer":0,
			"byteLength":362352,
			"byteOffset":541168,
			"target":34962
		},
		{
			"buffer":0,
			"byteLength":241568,
			"byteOffset":903520,
			"target":34962
		},
		{
			"buffer":0,
			"byteLength":336768,
			"byteOffset":1145088,
			"target":34963
		}
	],
	"samplers":[
		{
			"magFilter":9729,
			"minFilter":9987
		}
	],
	"buffers":[
		{
			"byteLength":1481856,
			"uri":"kangaroo.bin"
		}
	]
}
