{
	"asset":{
		"generator":"Khronos glTF Blender I/O v4.0.44",
		"version":"2.0"
	},
	"extensionsUsed":[
		"KHR_materials_transmission",
		"KHR_materials_specular"
	],
	"scene":0,
	"scenes":[
		{
			"name":"Scene",
			"nodes":[
				0
			]
		}
	],
	"nodes":[
		{
			"mesh":0,
			"name":"10459_White_Ash_Tree_v1_L3",
			"rotation":[
				0.7071068286895752,
				0,
				0,
				0.7071068286895752
			]
		}
	],
	"materials":[
		{
			"doubleSided":true,
			"extensions":{
				"KHR_materials_transmission":{
					"transmissionFactor":1
				},
				"KHR_materials_specular":{
					"specularFactor":0
				}
			},
			"name":"10459_White_Ash_Tree_v1.001",
			"pbrMetallicRoughness":{
				"baseColorTexture":{
					"index":0
				},
				"metallicFactor":0,
				"roughnessFactor":0.8999999761581421
			}
		}
	],
	"meshes":[
		{
			"name":"10459_White_Ash_Tree_v1_L3.001",
			"primitives":[
				{
					"attributes":{
						"POSITION":0,
						"NORMAL":1,
						"TEXCOORD_0":2
					},
					"indices":3,
					"material":0
				}
			]
		}
	],
	"textures":[
		{
			"sampler":0,
			"source":0
		}
	],
	"images":[
		{
			"mimeType":"image/jpeg",
			"name":"10459_White_Ash_Tree_v1_Diffuse",
			"uri":"10459_White_Ash_Tree_v1_Diffuse.jpg"
		}
	],
	"accessors":[
		{
			"bufferView":0,
			"componentType":5126,
			"count":5300,
			"max":[
				121.10099792480469,
				592.4478149414062,
				126.67960357666016
			],
			"min":[
				-131.14230346679688,
				0,
				-114.42279815673828
			],
			"type":"VEC3"
		},
		{
			"bufferView":1,
			"componentType":5126,
			"count":5300,
			"type":"VEC3"
		},
		{
			"bufferView":2,
			"componentType":5126,
			"count":5300,
			"type":"VEC2"
		},
		{
			"bufferView":3,
			"componentType":5123,
			"count":30720,
			"type":"SCALAR"
		}
	],
	"bufferViews":[
		{
			"buffer":0,
			"byteLength":63600,
			"byteOffset":0,
			"target":34962
		},
		{
			"buffer":0,
			"byteLength":63600,
			"byteOffset":63600,
			"target":34962
		},
		{
			"buffer":0,
			"byteLength":42400,
			"byteOffset":127200,
			"target":34962
		},
		{
			"buffer":0,
			"byteLength":61440,
			"byteOffset":169600,
			"target":34963
		}
	],
	"samplers":[
		{
			"magFilter":9729,
			"minFilter":9987
		}
	],
	"buffers":[
		{
			"byteLength":231040,
			"uri":"tree6.bin"
		}
	]
}
