{
	"asset":{
		"generator":"Khronos glTF Blender I/O v4.0.44",
		"version":"2.0"
	},
	"extensionsUsed":[
		"KHR_materials_transmission",
		"KHR_materials_specular"
	],
	"scene":0,
	"scenes":[
		{
			"name":"Scene",
			"nodes":[
				0
			]
		}
	],
	"nodes":[
		{
			"mesh":0,
			"name":"12958_Spider_Monkey_v1_l2",
			"rotation":[
				-0.028844822198152542,
				0.8965385556221008,
				0.18392255902290344,
				0.40194422006607056
			]
		}
	],
	"materials":[
		{
			"doubleSided":true,
			"extensions":{
				"KHR_materials_transmission":{
					"transmissionFactor":1
				},
				"KHR_materials_specular":{
					"specularFactor":0
				}
			},
			"name":"12958_Spider_Monkey",
			"normalTexture":{
				"index":0,
				"scale":0
			},
			"pbrMetallicRoughness":{
				"baseColorTexture":{
					"index":1
				},
				"metallicFactor":0,
				"roughnessFactor":0.8999999761581421
			}
		}
	],
	"meshes":[
		{
			"name":"12958_Spider_Monkey_v1_l2",
			"primitives":[
				{
					"attributes":{
						"POSITION":0,
						"NORMAL":1,
						"TEXCOORD_0":2
					},
					"indices":3,
					"material":0
				}
			]
		}
	],
	"textures":[
		{
			"sampler":0,
			"source":0
		},
		{
			"sampler":0,
			"source":1
		}
	],
	"images":[
		{
			"mimeType":"image/jpeg",
			"name":"Map__3_Normal Bump",
			"uri":"Map__3_Normal%20Bump.jpg"
		},
		{
			"mimeType":"image/jpeg",
			"name":"12958_Spider_Monkey_diff",
			"uri":"12958_Spider_Monkey_diff.jpg"
		}
	],
	"accessors":[
		{
			"bufferView":0,
			"componentType":5126,
			"count":49505,
			"max":[
				26.128299713134766,
				88.1613998413086,
				45.51089859008789
			],
			"min":[
				-26.1289005279541,
				-0.34310001134872437,
				-45.51219940185547
			],
			"type":"VEC3"
		},
		{
			"bufferView":1,
			"componentType":5126,
			"count":49505,
			"type":"VEC3"
		},
		{
			"bufferView":2,
			"componentType":5126,
			"count":49505,
			"type":"VEC2"
		},
		{
			"bufferView":3,
			"componentType":5123,
			"count":284928,
			"type":"SCALAR"
		}
	],
	"bufferViews":[
		{
			"buffer":0,
			"byteLength":594060,
			"byteOffset":0,
			"target":34962
		},
		{
			"buffer":0,
			"byteLength":594060,
			"byteOffset":594060,
			"target":34962
		},
		{
			"buffer":0,
			"byteLength":396040,
			"byteOffset":1188120,
			"target":34962
		},
		{
			"buffer":0,
			"byteLength":569856,
			"byteOffset":1584160,
			"target":34963
		}
	],
	"samplers":[
		{
			"magFilter":9729,
			"minFilter":9987
		}
	],
	"buffers":[
		{
			"byteLength":2154016,
			"uri":"monkey.bin"
		}
	]
}
