{
	"asset":{
		"generator":"Khronos glTF Blender I/O v4.0.44",
		"version":"2.0"
	},
	"extensionsUsed":[
		"KHR_materials_transmission",
		"KHR_materials_specular"
	],
	"scene":0,
	"scenes":[
		{
			"name":"Scene",
			"nodes":[
				0
			]
		}
	],
	"nodes":[
		{
			"mesh":0,
			"name":"13564_Golden_Lion_Tamarin_v1_L2",
			"rotation":[
				-0.001228570705279708,
				0,
				0,
				1
			]
		}
	],
	"materials":[
		{
			"doubleSided":true,
			"extensions":{
				"KHR_materials_transmission":{
					"transmissionFactor":1
				},
				"KHR_materials_specular":{
					"specularTexture":{
						"index":0
					}
				}
			},
			"name":"13564GoldenLionTamarin",
			"pbrMetallicRoughness":{
				"baseColorTexture":{
					"index":1
				},
				"metallicFactor":0,
				"roughnessFactor":0.8999999761581421
			}
		}
	],
	"meshes":[
		{
			"name":"13564_Golden_Lion_Tamarin_v1_L2",
			"primitives":[
				{
					"attributes":{
						"POSITION":0,
						"NORMAL":1,
						"TEXCOORD_0":2
					},
					"indices":3,
					"material":0
				}
			]
		}
	],
	"textures":[
		{
			"sampler":0,
			"source":0
		},
		{
			"sampler":0,
			"source":1
		}
	],
	"images":[
		{
			"mimeType":"image/png",
			"name":"13564GoldenLionTamarin_speccolor",
			"uri":"13564GoldenLionTamarin_speccolor.png"
		},
		{
			"mimeType":"image/jpeg",
			"name":"13564GoldenLionTamarin_diffuse",
			"uri":"13564GoldenLionTamarin_diffuse.jpg"
		}
	],
	"accessors":[
		{
			"bufferView":0,
			"componentType":5126,
			"count":37777,
			"max":[
				6.743599891662598,
				18.556299209594727,
				14.85509967803955
			],
			"min":[
				-6.743599891662598,
				-28.63360023498535,
				-12.127799987792969
			],
			"type":"VEC3"
		},
		{
			"bufferView":1,
			"componentType":5126,
			"count":37777,
			"type":"VEC3"
		},
		{
			"bufferView":2,
			"componentType":5126,
			"count":37777,
			"type":"VEC2"
		},
		{
			"bufferView":3,
			"componentType":5123,
			"count":214080,
			"type":"SCALAR"
		}
	],
	"bufferViews":[
		{
			"buffer":0,
			"byteLength":453324,
			"byteOffset":0,
			"target":34962
		},
		{
			"buffer":0,
			"byteLength":453324,
			"byteOffset":453324,
			"target":34962
		},
		{
			"buffer":0,
			"byteLength":302216,
			"byteOffset":906648,
			"target":34962
		},
		{
			"buffer":0,
			"byteLength":428160,
			"byteOffset":1208864,
			"target":34963
		}
	],
	"samplers":[
		{
			"magFilter":9729,
			"minFilter":9987
		}
	],
	"buffers":[
		{
			"byteLength":1637024,
			"uri":"tamarin.bin"
		}
	]
}
