{
	"asset":{
		"generator":"Khronos glTF Blender I/O v4.0.44",
		"version":"2.0"
	},
	"extensionsUsed":[
		"KHR_materials_transmission",
		"KHR_materials_specular"
	],
	"scene":0,
	"scenes":[
		{
			"name":"Scene",
			"nodes":[
				0
			]
		}
	],
	"nodes":[
		{
			"mesh":0,
			"name":"10449_Rectangular_Box_Hedge_v1_iterations-2",
			"rotation":[
				0.7071068286895752,
				0,
				0,
				0.7071068286895752
			]
		}
	],
	"materials":[
		{
			"doubleSided":true,
			"extensions":{
				"KHR_materials_transmission":{
					"transmissionFactor":1
				},
				"KHR_materials_specular":{
					"specularFactor":0.18000000715255737
				}
			},
			"name":"10449_Rectangular_Box_Hedge_v1",
			"pbrMetallicRoughness":{
				"baseColorTexture":{
					"index":0
				},
				"metallicFactor":0,
				"roughnessFactor":0.8999999761581421
			}
		}
	],
	"meshes":[
		{
			"name":"10449_Rectangular_Box_Hedge_v1_iterations-2",
			"primitives":[
				{
					"attributes":{
						"POSITION":0,
						"NORMAL":1,
						"TEXCOORD_0":2
					},
					"indices":3,
					"material":0
				}
			]
		}
	],
	"textures":[
		{
			"sampler":0,
			"source":0
		}
	],
	"images":[
		{
			"mimeType":"image/jpeg",
			"name":"10449_Rectangular_Box_Hedge_v1_Diffuse",
			"uri":"10449_Rectangular_Box_Hedge_v1_Diffuse.jpg"
		}
	],
	"accessors":[
		{
			"bufferView":0,
			"componentType":5126,
			"count":37585,
			"max":[
				114.34259796142578,
				154.0635986328125,
				40.22999954223633
			],
			"min":[
				-116.41690063476562,
				-6.015900135040283,
				-40.26750183105469
			],
			"type":"VEC3"
		},
		{
			"bufferView":1,
			"componentType":5126,
			"count":37585,
			"type":"VEC3"
		},
		{
			"bufferView":2,
			"componentType":5126,
			"count":37585,
			"type":"VEC2"
		},
		{
			"bufferView":3,
			"componentType":5123,
			"count":222720,
			"type":"SCALAR"
		}
	],
	"bufferViews":[
		{
			"buffer":0,
			"byteLength":451020,
			"byteOffset":0,
			"target":34962
		},
		{
			"buffer":0,
			"byteLength":451020,
			"byteOffset":451020,
			"target":34962
		},
		{
			"buffer":0,
			"byteLength":300680,
			"byteOffset":902040,
			"target":34962
		},
		{
			"buffer":0,
			"byteLength":445440,
			"byteOffset":1202720,
			"target":34963
		}
	],
	"samplers":[
		{
			"magFilter":9729,
			"minFilter":9987
		}
	],
	"buffers":[
		{
			"byteLength":1648160,
			"uri":"hedge.bin"
		}
	]
}
