{
	"asset":{
		"generator":"Khronos glTF Blender I/O v4.0.44",
		"version":"2.0"
	},
	"scene":0,
	"scenes":[
		{
			"name":"Scene",
			"nodes":[
				4
			]
		}
	],
	"nodes":[
		{
			"mesh":0,
			"name":"Object_4"
		},
		{
			"children":[
				0
			],
			"name":"brush_DoubleTaperedFlat_g0_b0_0"
		},
		{
			"children":[
				1
			],
			"name":"GLTF_SceneRootNode",
			"rotation":[
				0.70710688829422,
				0,
				0,
				0.7071066498756409
			]
		},
		{
			"children":[
				2
			],
			"name":"root"
		},
		{
			"children":[
				3
			],
			"name":"Sketchfab_model",
			"rotation":[
				-0.70710688829422,
				0,
				0,
				0.7071066498756409
			]
		}
	],
	"materials":[
		{
			"doubleSided":true,
			"name":"brush_DoubleTaperedFlat",
			"pbrMetallicRoughness":{
				"baseColorTexture":{
					"index":0
				}
			}
		}
	],
	"meshes":[
		{
			"name":"Object_0",
			"primitives":[
				{
					"attributes":{
						"COLOR_0":0,
						"POSITION":1,
						"NORMAL":2,
						"TEXCOORD_0":3
					},
					"indices":4,
					"material":0
				}
			]
		}
	],
	"textures":[
		{
			"sampler":0,
			"source":0
		}
	],
	"images":[
		{
			"mimeType":"image/jpeg",
			"name":"reedcolor",
			"uri":"reedcolor.jpg"
		}
	],
	"accessors":[
		{
			"bufferView":0,
			"componentType":5123,
			"count":1458,
			"normalized":true,
			"type":"VEC4"
		},
		{
			"bufferView":1,
			"componentType":5126,
			"count":1458,
			"max":[
				0.3519185781478882,
				1.3788877725601196,
				0.3384961783885956
			],
			"min":[
				-0.1885916143655777,
				0.06561984866857529,
				-0.07610660046339035
			],
			"type":"VEC3"
		},
		{
			"bufferView":2,
			"componentType":5126,
			"count":1458,
			"type":"VEC3"
		},
		{
			"bufferView":3,
			"componentType":5126,
			"count":1458,
			"type":"VEC2"
		},
		{
			"bufferView":4,
			"componentType":5123,
			"count":4116,
			"type":"SCALAR"
		}
	],
	"bufferViews":[
		{
			"buffer":0,
			"byteLength":11664,
			"byteOffset":0,
			"target":34962
		},
		{
			"buffer":0,
			"byteLength":17496,
			"byteOffset":11664,
			"target":34962
		},
		{
			"buffer":0,
			"byteLength":17496,
			"byteOffset":29160,
			"target":34962
		},
		{
			"buffer":0,
			"byteLength":11664,
			"byteOffset":46656,
			"target":34962
		},
		{
			"buffer":0,
			"byteLength":8232,
			"byteOffset":58320,
			"target":34963
		}
	],
	"samplers":[
		{
			"magFilter":9729,
			"minFilter":9987
		}
	],
	"buffers":[
		{
			"byteLength":66552,
			"uri":"reed.bin"
		}
	]
}
