{
	"asset":{
		"generator":"Khronos glTF Blender I/O v4.0.44",
		"version":"2.0"
	},
	"extensionsUsed":[
		"KHR_materials_transmission",
		"KHR_materials_specular"
	],
	"scene":0,
	"scenes":[
		{
			"name":"Scene",
			"nodes":[
				0
			]
		}
	],
	"nodes":[
		{
			"mesh":0,
			"name":"10445_Oak_Tree_v1_max2010_iteration-1",
			"rotation":[
				0.7071068286895752,
				0,
				0,
				0.7071068286895752
			]
		}
	],
	"materials":[
		{
			"doubleSided":true,
			"extensions":{
				"KHR_materials_transmission":{
					"transmissionFactor":1
				},
				"KHR_materials_specular":{
					"specularFactor":0
				}
			},
			"name":"10445_Oak_tree_v1",
			"pbrMetallicRoughness":{
				"baseColorTexture":{
					"index":0
				},
				"metallicFactor":0,
				"roughnessFactor":0.8999999761581421
			}
		}
	],
	"meshes":[
		{
			"name":"10445_Oak_Tree_v1_max2010_iteration-1",
			"primitives":[
				{
					"attributes":{
						"POSITION":0,
						"NORMAL":1,
						"TEXCOORD_0":2
					},
					"indices":3,
					"material":0
				}
			]
		}
	],
	"textures":[
		{
			"sampler":0,
			"source":0
		}
	],
	"images":[
		{
			"mimeType":"image/jpeg",
			"name":"10445_Oak_Tree_v1_diffuse",
			"uri":"10445_Oak_Tree_v1_diffuse.jpg"
		}
	],
	"accessors":[
		{
			"bufferView":0,
			"componentType":5126,
			"count":20551,
			"max":[
				221.36749267578125,
				596.7803955078125,
				272.7013854980469
			],
			"min":[
				-242.29580688476562,
				0.49729999899864197,
				-335.4913024902344
			],
			"type":"VEC3"
		},
		{
			"bufferView":1,
			"componentType":5126,
			"count":20551,
			"type":"VEC3"
		},
		{
			"bufferView":2,
			"componentType":5126,
			"count":20551,
			"type":"VEC2"
		},
		{
			"bufferView":3,
			"componentType":5123,
			"count":108000,
			"type":"SCALAR"
		}
	],
	"bufferViews":[
		{
			"buffer":0,
			"byteLength":246612,
			"byteOffset":0,
			"target":34962
		},
		{
			"buffer":0,
			"byteLength":246612,
			"byteOffset":246612,
			"target":34962
		},
		{
			"buffer":0,
			"byteLength":164408,
			"byteOffset":493224,
			"target":34962
		},
		{
			"buffer":0,
			"byteLength":216000,
			"byteOffset":657632,
			"target":34963
		}
	],
	"samplers":[
		{
			"magFilter":9729,
			"minFilter":9987
		}
	],
	"buffers":[
		{
			"byteLength":873632,
			"uri":"mainTree.bin"
		}
	]
}
