{
	"asset":{
		"generator":"Khronos glTF Blender I/O v4.0.44",
		"version":"2.0"
	},
	"scene":0,
	"scenes":[
		{
			"name":"Scene",
			"nodes":[
				4
			]
		}
	],
	"nodes":[
		{
			"mesh":0,
			"name":"geo1_MAT_Statue_Bear_Welcome_0"
		},
		{
			"children":[
				0
			],
			"name":"geo1"
		},
		{
			"children":[
				1
			],
			"name":"RootNode"
		},
		{
			"children":[
				2
			],
			"name":"mesh.fbx",
			"rotation":[
				0.70710688829422,
				0,
				0,
				0.7071066498756409
			],
			"scale":[
				0.009999999776482582,
				0.009999999776482582,
				0.009999999776482582
			]
		},
		{
			"children":[
				3
			],
			"name":"Sketchfab_model",
			"rotation":[
				-0.70710688829422,
				0,
				0,
				0.7071066498756409
			],
			"scale":[
				2389.058837890625,
				2389.05859375,
				2389.05859375
			]
		}
	],
	"materials":[
		{
			"doubleSided":true,
			"name":"MAT_Statue_Bear_Welcome",
			"pbrMetallicRoughness":{
				"baseColorTexture":{
					"index":0
				},
				"metallicFactor":0,
				"roughnessFactor":0.9577051401138306
			}
		}
	],
	"meshes":[
		{
			"name":"geo1_MAT_Statue_Bear_Welcome_0",
			"primitives":[
				{
					"attributes":{
						"POSITION":0,
						"NORMAL":1,
						"TEXCOORD_0":2
					},
					"indices":3,
					"material":0
				}
			]
		}
	],
	"textures":[
		{
			"sampler":0,
			"source":0
		}
	],
	"images":[
		{
			"mimeType":"image/jpeg",
			"name":"MAT_Statue_Bear_Welcome_baseColor",
			"uri":"MAT_Statue_Bear_Welcome_baseColor.jpg"
		}
	],
	"accessors":[
		{
			"bufferView":0,
			"componentType":5126,
			"count":2173,
			"max":[
				0.13469457626342773,
				0.42499980330467224,
				0.07908299565315247
			],
			"min":[
				-0.13511919975280762,
				5.140900611877441e-06,
				-0.07853418588638306
			],
			"type":"VEC3"
		},
		{
			"bufferView":1,
			"componentType":5126,
			"count":2173,
			"type":"VEC3"
		},
		{
			"bufferView":2,
			"componentType":5126,
			"count":2173,
			"type":"VEC2"
		},
		{
			"bufferView":3,
			"componentType":5123,
			"count":9300,
			"type":"SCALAR"
		}
	],
	"bufferViews":[
		{
			"buffer":0,
			"byteLength":26076,
			"byteOffset":0,
			"target":34962
		},
		{
			"buffer":0,
			"byteLength":26076,
			"byteOffset":26076,
			"target":34962
		},
		{
			"buffer":0,
			"byteLength":17384,
			"byteOffset":52152,
			"target":34962
		},
		{
			"buffer":0,
			"byteLength":18600,
			"byteOffset":69536,
			"target":34963
		}
	],
	"samplers":[
		{
			"magFilter":9729,
			"minFilter":9987
		}
	],
	"buffers":[
		{
			"byteLength":88136,
			"uri":"welcomeSign.bin"
		}
	]
}
