{
	"asset":{
		"generator":"Khronos glTF Blender I/O v4.0.44",
		"version":"2.0"
	},
	"extensionsUsed":[
		"KHR_materials_transmission",
		"KHR_materials_specular"
	],
	"scene":0,
	"scenes":[
		{
			"name":"Scene",
			"nodes":[
				0
			]
		}
	],
	"nodes":[
		{
			"mesh":0,
			"name":"20958_Log_Cabin_v1_NEW",
			"rotation":[
				-0.0013827676884829998,
				0,
				0,
				1
			]
		}
	],
	"materials":[
		{
			"doubleSided":true,
			"extensions":{
				"KHR_materials_transmission":{
					"transmissionFactor":1
				},
				"KHR_materials_specular":{}
			},
			"name":"20958_Log_Cabin_v1",
			"pbrMetallicRoughness":{
				"baseColorTexture":{
					"index":0
				},
				"metallicFactor":0,
				"roughnessFactor":0.8658359050750732
			}
		},
		{
			"doubleSided":true,
			"extensions":{
				"KHR_materials_transmission":{
					"transmissionFactor":1
				},
				"KHR_materials_specular":{
					"specularFactor":0
				}
			},
			"name":"02___Default",
			"pbrMetallicRoughness":{
				"metallicFactor":0,
				"roughnessFactor":0.8999999761581421
			}
		}
	],
	"meshes":[
		{
			"name":"20958_Log_Cabin_v1_NEW",
			"primitives":[
				{
					"attributes":{
						"POSITION":0,
						"NORMAL":1,
						"TEXCOORD_0":2
					},
					"indices":3,
					"material":0
				},
				{
					"attributes":{
						"POSITION":4,
						"NORMAL":5,
						"TEXCOORD_0":6
					},
					"indices":7,
					"material":1
				}
			]
		}
	],
	"textures":[
		{
			"sampler":0,
			"source":0
		}
	],
	"images":[
		{
			"mimeType":"image/jpeg",
			"name":"20958_Log_Cabin_v1_diffuse",
			"uri":"20958_Log_Cabin_v1_diffuse.jpg"
		}
	],
	"accessors":[
		{
			"bufferView":0,
			"componentType":5126,
			"count":50394,
			"max":[
				3.7098000049591064,
				8.593899726867676,
				3.5025999546051025
			],
			"min":[
				-3.7098000049591064,
				0.9043999910354614,
				-3.4941999912261963
			],
			"type":"VEC3"
		},
		{
			"bufferView":1,
			"componentType":5126,
			"count":50394,
			"type":"VEC3"
		},
		{
			"bufferView":2,
			"componentType":5126,
			"count":50394,
			"type":"VEC2"
		},
		{
			"bufferView":3,
			"componentType":5123,
			"count":237498,
			"type":"SCALAR"
		},
		{
			"bufferView":4,
			"componentType":5126,
			"count":1388,
			"max":[
				4.955900192260742,
				0.9958000183105469,
				4.955900192260742
			],
			"min":[
				-4.956099987030029,
				0,
				-4.956099987030029
			],
			"type":"VEC3"
		},
		{
			"bufferView":5,
			"componentType":5126,
			"count":1388,
			"type":"VEC3"
		},
		{
			"bufferView":6,
			"componentType":5126,
			"count":1388,
			"type":"VEC2"
		},
		{
			"bufferView":7,
			"componentType":5123,
			"count":7176,
			"type":"SCALAR"
		}
	],
	"bufferViews":[
		{
			"buffer":0,
			"byteLength":604728,
			"byteOffset":0,
			"target":34962
		},
		{
			"buffer":0,
			"byteLength":604728,
			"byteOffset":604728,
			"target":34962
		},
		{
			"buffer":0,
			"byteLength":403152,
			"byteOffset":1209456,
			"target":34962
		},
		{
			"buffer":0,
			"byteLength":474996,
			"byteOffset":1612608,
			"target":34963
		},
		{
			"buffer":0,
			"byteLength":16656,
			"byteOffset":2087604,
			"target":34962
		},
		{
			"buffer":0,
			"byteLength":16656,
			"byteOffset":2104260,
			"target":34962
		},
		{
			"buffer":0,
			"byteLength":11104,
			"byteOffset":2120916,
			"target":34962
		},
		{
			"buffer":0,
			"byteLength":14352,
			"byteOffset":2132020,
			"target":34963
		}
	],
	"samplers":[
		{
			"magFilter":9729,
			"minFilter":9987
		}
	],
	"buffers":[
		{
			"byteLength":2146372,
			"uri":"cabin.bin"
		}
	]
}
