{
  "accessors": [
    {
      "bufferView": 2,
      "componentType": 5126,
      "count": 244,
      "max": [
        1.548490047454834,
        1.4554799795150757,
        3.160799980163574
      ],
      "min": [
        -2.2722299098968506,
        -1.4554799795150757,
        0.0
      ],
      "type": "VEC3"
    },
    {
      "bufferView": 2,
      "byteOffset": 2928,
      "componentType": 5126,
      "count": 244,
      "max": [
        1.0,
        1.0,
        0.6711717844009399
      ],
      "min": [
        -1.0,
        -1.0,
        -1.0
      ],
      "type": "VEC3"
    },
    {
      "bufferView": 3,
      "componentType": 5126,
      "count": 244,
      "max": [
        1.0,
        1.0,
        0.9995467662811279,
        1.0
      ],
      "min": [
        -1.0,
        -1.0,
        -1.0,
        1.0
      ],
      "type": "VEC4"
    },
    {
      "bufferView": 2,
      "byteOffset": 5856,
      "componentType": 5126,
      "count": 244,
      "max": [
        1.0,
        1.0,
        1.0
      ],
      "min": [
        0.14901961386203766,
        0.14901961386203766,
        0.14901961386203766
      ],
      "type": "VEC3"
    },
    {
      "bufferView": 1,
      "componentType": 5126,
      "count": 244,
      "max": [
        7.389019966125488,
        8.077549934387207
      ],
      "min": [
        -7.17294979095459,
        -7.170259952545166
      ],
      "type": "VEC2"
    },
    {
      "bufferView": 0,
      "componentType": 5125,
      "count": 408,
      "type": "SCALAR"
    },
    {
      "bufferView": 2,
      "byteOffset": 8784,
      "componentType": 5126,
      "count": 35,
      "max": [
        1.3747700452804565,
        1.3286000490188599,
        2.4175000190734863
      ],
      "min": [
        -0.06391000002622604,
        -1.333359956741333,
        0.9708399772644043
      ],
      "type": "VEC3"
    },
    {
      "bufferView": 2,
      "byteOffset": 9204,
      "componentType": 5126,
      "count": 35,
      "max": [
        1.0,
        1.0,
        -0.0
      ],
      "min": [
        0.0,
        -1.0,
        -0.0
      ],
      "type": "VEC3"
    },
    {
      "bufferView": 2,
      "byteOffset": 9624,
      "componentType": 5126,
      "count": 35,
      "max": [
        1.0,
        1.0,
        1.0
      ],
      "min": [
        1.0,
        1.0,
        1.0
      ],
      "type": "VEC3"
    },
    {
      "bufferView": 1,
      "byteOffset": 1952,
      "componentType": 5126,
      "count": 35,
      "max": [
        5.729800224304199,
        5.479589939117432
      ],
      "min": [
        -0.9667699933052063,
        0.4056299924850464
      ],
      "type": "VEC2"
    },
    {
      "bufferView": 0,
      "byteOffset": 1632,
      "componentType": 5125,
      "count": 75,
      "type": "SCALAR"
    },
    {
      "bufferView": 2,
      "byteOffset": 10044,
      "componentType": 5126,
      "count": 276,
      "max": [
        1.775730013847351,
        1.6375399827957153,
        3.0784800052642822
      ],
      "min": [
        -2.2935900688171387,
        -1.6375399827957153,
        0.0
      ],
      "type": "VEC3"
    },
    {
      "bufferView": 2,
      "byteOffset": 13356,
      "componentType": 5126,
      "count": 276,
      "max": [
        1.0,
        1.0,
        1.0
      ],
      "min": [
        -1.0,
        -1.0,
        -1.0
      ],
      "type": "VEC3"
    },
    {
      "bufferView": 2,
      "byteOffset": 16668,
      "componentType": 5126,
      "count": 276,
      "max": [
        0.7411764860153198,
        0.0941176488995552,
        0.11764705926179886
      ],
      "min": [
        0.47843137383461,
        0.062745101749897,
        0.0784313753247261
      ],
      "type": "VEC3"
    },
    {
      "bufferView": 1,
      "byteOffset": 2232,
      "componentType": 5126,
      "count": 276,
      "max": [
        8.17294979095459,
        8.170260429382324
      ],
      "min": [
        -7.17294979095459,
        -7.170259952545166
      ],
      "type": "VEC2"
    },
    {
      "bufferView": 0,
      "byteOffset": 1932,
      "componentType": 5125,
      "count": 456,
      "type": "SCALAR"
    },
    {
      "bufferView": 2,
      "byteOffset": 19980,
      "componentType": 5126,
      "count": 104,
      "max": [
        1.5626100301742554,
        1.4644399881362915,
        3.3968698978424072
      ],
      "min": [
        -2.28164005279541,
        -1.4644399881362915,
        3.1571500301361084
      ],
      "type": "VEC3"
    },
    {
      "bufferView": 2,
      "byteOffset": 21228,
      "componentType": 5126,
      "count": 104,
      "max": [
        1.0,
        1.0,
        1.0
      ],
      "min": [
        -1.0,
        -1.0,
        -0.9990682005882263
      ],
      "type": "VEC3"
    },
    {
      "bufferView": 2,
      "byteOffset": 22476,
      "componentType": 5126,
      "count": 104,
      "max": [
        0.6901960968971252,
        0.08627451211214066,
        0.11372549086809158
      ],
      "min": [
        0.47843137383461,
        0.062745101749897,
        0.0784313753247261
      ],
      "type": "VEC3"
    },
    {
      "bufferView": 1,
      "byteOffset": 4440,
      "componentType": 5126,
      "count": 104,
      "max": [
        7.313549995422363,
        6.9077301025390625
      ],
      "min": [
        -7.17294979095459,
        -7.170259952545166
      ],
      "type": "VEC2"
    },
    {
      "bufferView": 0,
      "byteOffset": 3756,
      "componentType": 5125,
      "count": 162,
      "type": "SCALAR"
    }
  ],
  "asset": {
    "extras": {
      "author": "daedaljs (https://sketchfab.com/daedalJS)",
      "license": "CC-BY-4.0 (http://creativecommons.org/licenses/by/4.0/)",
      "source": "https://sketchfab.com/3d-models/ticket-booth-7e12559eed534b5699c4262e7e1a6bb1",
      "title": "Ticket Booth"
    },
    "generator": "Sketchfab-12.68.0",
    "version": "2.0"
  },
  "bufferViews": [
    {
      "buffer": 0,
      "byteLength": 4404,
      "name": "floatBufferViews",
      "target": 34963
    },
    {
      "buffer": 0,
      "byteLength": 5272,
      "byteOffset": 4404,
      "byteStride": 8,
      "name": "floatBufferViews",
      "target": 34962
    },
    {
      "buffer": 0,
      "byteLength": 23724,
      "byteOffset": 9676,
      "byteStride": 12,
      "name": "floatBufferViews",
      "target": 34962
    },
    {
      "buffer": 0,
      "byteLength": 3904,
      "byteOffset": 33400,
      "byteStride": 16,
      "name": "floatBufferViews",
      "target": 34962
    }
  ],
  "buffers": [
    {
      "byteLength": 37304,
      "uri": "scene.bin"
    }
  ],
  "images": [
    {
      "uri": "textures/walls_normal.png"
    }
  ],
  "materials": [
    {
      "doubleSided": true,
      "name": "walls",
      "normalTexture": {
        "index": 0
      },
      "pbrMetallicRoughness": {
        "metallicFactor": 0.0
      }
    },
    {
      "alphaMode": "BLEND",
      "doubleSided": true,
      "name": "glass.001",
      "pbrMetallicRoughness": {
        "baseColorFactor": [
          0.21847116475405587,
          0.37685811708555106,
          0.783914465286133,
          0.4529344512195122
        ],
        "roughnessFactor": 0.0
      }
    },
    {
      "doubleSided": true,
      "name": "beams",
      "pbrMetallicRoughness": {
        "metallicFactor": 0.0,
        "roughnessFactor": 0.0
      }
    },
    {
      "doubleSided": true,
      "name": "material",
      "pbrMetallicRoughness": {
        "metallicFactor": 0.0,
        "roughnessFactor": 0.4407393292682927
      }
    }
  ],
  "meshes": [
    {
      "name": "TicketBooth_0",
      "primitives": [
        {
          "attributes": {
            "COLOR_0": 3,
            "NORMAL": 1,
            "POSITION": 0,
            "TANGENT": 2,
            "TEXCOORD_0": 4
          },
          "indices": 5,
          "material": 0,
          "mode": 4
        }
      ]
    },
    {
      "name": "TicketBooth_1",
      "primitives": [
        {
          "attributes": {
            "COLOR_0": 8,
            "NORMAL": 7,
            "POSITION": 6,
            "TEXCOORD_0": 9
          },
          "indices": 10,
          "material": 1,
          "mode": 4
        }
      ]
    },
    {
      "name": "TicketBooth_2",
      "primitives": [
        {
          "attributes": {
            "COLOR_0": 13,
            "NORMAL": 12,
            "POSITION": 11,
            "TEXCOORD_0": 14
          },
          "indices": 15,
          "material": 2,
          "mode": 4
        }
      ]
    },
    {
      "name": "TicketBooth_3",
      "primitives": [
        {
          "attributes": {
            "COLOR_0": 18,
            "NORMAL": 17,
            "POSITION": 16,
            "TEXCOORD_0": 19
          },
          "indices": 20,
          "material": 3,
          "mode": 4
        }
      ]
    }
  ],
  "nodes": [
    {
      "children": [
        1
      ],
      "matrix": [
        1.0,
        0.0,
        0.0,
        0.0,
        0.0,
        2.220446049250313e-16,
        -1.0,
        0.0,
        0.0,
        1.0,
        2.220446049250313e-16,
        0.0,
        0.0,
        0.0,
        0.0,
        1.0
      ],
      "name": "Sketchfab_model"
    },
    {
      "children": [
        2
      ],
      "name": "Root"
    },
    {
      "children": [
        3,
        4,
        5,
        6
      ],
      "name": "TicketBooth"
    },
    {
      "mesh": 0,
      "name": "TicketBooth_0"
    },
    {
      "mesh": 1,
      "name": "TicketBooth_1"
    },
    {
      "mesh": 2,
      "name": "TicketBooth_2"
    },
    {
      "mesh": 3,
      "name": "TicketBooth_3"
    }
  ],
  "samplers": [
    {
      "magFilter": 9729,
      "minFilter": 9987,
      "wrapS": 10497,
      "wrapT": 10497
    }
  ],
  "scene": 0,
  "scenes": [
    {
      "name": "Sketchfab_Scene",
      "nodes": [
        0
      ]
    }
  ],
  "textures": [
    {
      "sampler": 0,
      "source": 0
    }
  ]
}
