{
	"asset":{
		"generator":"Khronos glTF Blender I/O v4.0.44",
		"version":"2.0"
	},
	"extensionsUsed":[
		"KHR_materials_specular",
		"KHR_materials_ior"
	],
	"scene":0,
	"scenes":[
		{
			"name":"Scene",
			"nodes":[
				0
			]
		}
	],
	"nodes":[
		{
			"mesh":0,
			"name":"TicketBooth"
		}
	],
	"materials":[
		{
			"doubleSided":true,
			"extensions":{
				"KHR_materials_specular":{
					"specularTexture":{
						"index":0
					}
				},
				"KHR_materials_ior":{
					"ior":1.4500000476837158
				}
			},
			"name":"walls",
			"normalTexture":{
				"index":1
			},
			"pbrMetallicRoughness":{
				"baseColorTexture":{
					"index":2
				},
				"metallicFactor":0,
				"metallicRoughnessTexture":{
					"index":3
				}
			}
		},
		{
			"doubleSided":true,
			"name":"glass.001",
			"pbrMetallicRoughness":{}
		},
		{
			"doubleSided":true,
			"name":"beams",
			"pbrMetallicRoughness":{}
		},
		{
			"doubleSided":true,
			"extensions":{
				"KHR_materials_specular":{
					"specularTexture":{
						"index":4
					}
				},
				"KHR_materials_ior":{
					"ior":1.4500000476837158
				}
			},
			"name":"material",
			"normalTexture":{
				"index":5
			},
			"pbrMetallicRoughness":{
				"baseColorTexture":{
					"index":6
				},
				"metallicFactor":0,
				"metallicRoughnessTexture":{
					"index":7
				}
			}
		}
	],
	"meshes":[
		{
			"name":"TicketBooth.001",
			"primitives":[
				{
					"attributes":{
						"COLOR_0":0,
						"POSITION":1,
						"NORMAL":2,
						"TEXCOORD_0":3
					},
					"indices":4,
					"material":0
				},
				{
					"attributes":{
						"COLOR_0":5,
						"POSITION":6,
						"NORMAL":7,
						"TEXCOORD_0":8
					},
					"indices":9,
					"material":1
				},
				{
					"attributes":{
						"COLOR_0":10,
						"POSITION":11,
						"NORMAL":12,
						"TEXCOORD_0":13
					},
					"indices":14,
					"material":2
				},
				{
					"attributes":{
						"COLOR_0":15,
						"POSITION":16,
						"NORMAL":17,
						"TEXCOORD_0":18
					},
					"indices":19,
					"material":3
				}
			]
		}
	],
	"textures":[
		{
			"sampler":0,
			"source":0
		},
		{
			"sampler":0,
			"source":1
		},
		{
			"sampler":0,
			"source":2
		},
		{
			"sampler":0,
			"source":3
		},
		{
			"sampler":0,
			"source":4
		},
		{
			"sampler":0,
			"source":5
		},
		{
			"sampler":0,
			"source":6
		},
		{
			"sampler":0,
			"source":7
		}
	],
	"images":[
		{
			"mimeType":"image/png",
			"name":"Concrete_smoothness",
			"uri":"Concrete_smoothness.png"
		},
		{
			"mimeType":"image/jpeg",
			"name":"Concrete_normal",
			"uri":"Concrete_normal.jpg"
		},
		{
			"mimeType":"image/jpeg",
			"name":"Concrete_ao",
			"uri":"Concrete_ao.jpg"
		},
		{
			"mimeType":"image/png",
			"name":"Concrete_smoothness",
			"uri":"Concrete_smoothness-1.png"
		},
		{
			"mimeType":"image/png",
			"name":"wall_paint-specular",
			"uri":"wall_paint-specular.png"
		},
		{
			"mimeType":"image/png",
			"name":"wall_paint-normal",
			"uri":"wall_paint-normal.png"
		},
		{
			"mimeType":"image/png",
			"name":"wall_paint-ao",
			"uri":"wall_paint-ao.png"
		},
		{
			"mimeType":"image/png",
			"name":"wall_paint-specular",
			"uri":"wall_paint-specular-1.png"
		}
	],
	"accessors":[
		{
			"bufferView":0,
			"componentType":5123,
			"count":240,
			"normalized":true,
			"type":"VEC4"
		},
		{
			"bufferView":1,
			"componentType":5126,
			"count":240,
			"max":[
				1.5484883785247803,
				3.160804510116577,
				1.4554753303527832
			],
			"min":[
				-2.2722251415252686,
				0,
				-1.4554753303527832
			],
			"type":"VEC3"
		},
		{
			"bufferView":2,
			"componentType":5126,
			"count":240,
			"type":"VEC3"
		},
		{
			"bufferView":3,
			"componentType":5126,
			"count":240,
			"type":"VEC2"
		},
		{
			"bufferView":4,
			"componentType":5123,
			"count":408,
			"type":"SCALAR"
		},
		{
			"bufferView":5,
			"componentType":5123,
			"count":35,
			"normalized":true,
			"type":"VEC4"
		},
		{
			"bufferView":6,
			"componentType":5126,
			"count":35,
			"max":[
				1.374770164489746,
				2.417503833770752,
				1.3333635330200195
			],
			"min":[
				-0.06391140818595886,
				0.9708418846130371,
				-1.3286025524139404
			],
			"type":"VEC3"
		},
		{
			"bufferView":7,
			"componentType":5126,
			"count":35,
			"type":"VEC3"
		},
		{
			"bufferView":8,
			"componentType":5126,
			"count":35,
			"type":"VEC2"
		},
		{
			"bufferView":9,
			"componentType":5123,
			"count":75,
			"type":"SCALAR"
		},
		{
			"bufferView":10,
			"componentType":5123,
			"count":272,
			"normalized":true,
			"type":"VEC4"
		},
		{
			"bufferView":11,
			"componentType":5126,
			"count":272,
			"max":[
				1.7757298946380615,
				3.0784809589385986,
				1.6375441551208496
			],
			"min":[
				-2.293585777282715,
				0,
				-1.6375441551208496
			],
			"type":"VEC3"
		},
		{
			"bufferView":12,
			"componentType":5126,
			"count":272,
			"type":"VEC3"
		},
		{
			"bufferView":13,
			"componentType":5126,
			"count":272,
			"type":"VEC2"
		},
		{
			"bufferView":14,
			"componentType":5123,
			"count":456,
			"type":"SCALAR"
		},
		{
			"bufferView":15,
			"componentType":5123,
			"count":104,
			"normalized":true,
			"type":"VEC4"
		},
		{
			"bufferView":16,
			"componentType":5126,
			"count":104,
			"max":[
				1.5626072883605957,
				3.3968682289123535,
				1.4644393920898438
			],
			"min":[
				-2.281637668609619,
				3.157153844833374,
				-1.4644395112991333
			],
			"type":"VEC3"
		},
		{
			"bufferView":17,
			"componentType":5126,
			"count":104,
			"type":"VEC3"
		},
		{
			"bufferView":18,
			"componentType":5126,
			"count":104,
			"type":"VEC2"
		},
		{
			"bufferView":19,
			"componentType":5123,
			"count":162,
			"type":"SCALAR"
		}
	],
	"bufferViews":[
		{
			"buffer":0,
			"byteLength":1920,
			"byteOffset":0,
			"target":34962
		},
		{
			"buffer":0,
			"byteLength":2880,
			"byteOffset":1920,
			"target":34962
		},
		{
			"buffer":0,
			"byteLength":2880,
			"byteOffset":4800,
			"target":34962
		},
		{
			"buffer":0,
			"byteLength":1920,
			"byteOffset":7680,
			"target":34962
		},
		{
			"buffer":0,
			"byteLength":816,
			"byteOffset":9600,
			"target":34963
		},
		{
			"buffer":0,
			"byteLength":280,
			"byteOffset":10416,
			"target":34962
		},
		{
			"buffer":0,
			"byteLength":420,
			"byteOffset":10696,
			"target":34962
		},
		{
			"buffer":0,
			"byteLength":420,
			"byteOffset":11116,
			"target":34962
		},
		{
			"buffer":0,
			"byteLength":280,
			"byteOffset":11536,
			"target":34962
		},
		{
			"buffer":0,
			"byteLength":150,
			"byteOffset":11816,
			"target":34963
		},
		{
			"buffer":0,
			"byteLength":2176,
			"byteOffset":11968,
			"target":34962
		},
		{
			"buffer":0,
			"byteLength":3264,
			"byteOffset":14144,
			"target":34962
		},
		{
			"buffer":0,
			"byteLength":3264,
			"byteOffset":17408,
			"target":34962
		},
		{
			"buffer":0,
			"byteLength":2176,
			"byteOffset":20672,
			"target":34962
		},
		{
			"buffer":0,
			"byteLength":912,
			"byteOffset":22848,
			"target":34963
		},
		{
			"buffer":0,
			"byteLength":832,
			"byteOffset":23760,
			"target":34962
		},
		{
			"buffer":0,
			"byteLength":1248,
			"byteOffset":24592,
			"target":34962
		},
		{
			"buffer":0,
			"byteLength":1248,
			"byteOffset":25840,
			"target":34962
		},
		{
			"buffer":0,
			"byteLength":832,
			"byteOffset":27088,
			"target":34962
		},
		{
			"buffer":0,
			"byteLength":324,
			"byteOffset":27920,
			"target":34963
		}
	],
	"samplers":[
		{
			"magFilter":9729,
			"minFilter":9987
		}
	],
	"buffers":[
		{
			"byteLength":28244,
			"uri":"TicketBooth2.bin"
		}
	]
}
