{
	"asset":{
		"generator":"Khronos glTF Blender I/O v4.0.44",
		"version":"2.0"
	},
	"extensionsUsed":[
		"KHR_materials_transmission",
		"KHR_materials_specular"
	],
	"scene":0,
	"scenes":[
		{
			"name":"Scene",
			"nodes":[
				0
			]
		}
	],
	"nodes":[
		{
			"mesh":0,
			"name":"12214_Bird_v1max_l3",
			"rotation":[
				0.0002827048592735082,
				0,
				0,
				1
			]
		}
	],
	"materials":[
		{
			"doubleSided":true,
			"extensions":{
				"KHR_materials_transmission":{
					"transmissionFactor":1
				},
				"KHR_materials_specular":{
					"specularFactor":0
				}
			},
			"name":"12214_bird",
			"normalTexture":{
				"index":0,
				"scale":0
			},
			"pbrMetallicRoughness":{
				"baseColorTexture":{
					"index":1
				},
				"metallicFactor":0,
				"roughnessFactor":0.8999999761581421
			}
		}
	],
	"meshes":[
		{
			"name":"12214_Bird_v1max_l3",
			"primitives":[
				{
					"attributes":{
						"POSITION":0,
						"NORMAL":1,
						"TEXCOORD_0":2
					},
					"indices":3,
					"material":0
				}
			]
		}
	],
	"textures":[
		{
			"sampler":0,
			"source":0
		},
		{
			"sampler":0,
			"source":1
		}
	],
	"images":[
		{
			"mimeType":"image/jpeg",
			"name":"Map__7_Normal Bump",
			"uri":"Map__7_Normal%20Bump.jpg"
		},
		{
			"mimeType":"image/jpeg",
			"name":"12214_Bird_diffuse",
			"uri":"12214_Bird_diffuse.jpg"
		}
	],
	"accessors":[
		{
			"bufferView":0,
			"componentType":5126,
			"count":64698,
			"max":[
				6.457200050354004,
				9.178500175476074,
				3.0529000759124756
			],
			"min":[
				-7.712600231170654,
				0.009499999694526196,
				-3.0566999912261963
			],
			"type":"VEC3"
		},
		{
			"bufferView":1,
			"componentType":5126,
			"count":64698,
			"type":"VEC3"
		},
		{
			"bufferView":2,
			"componentType":5126,
			"count":64698,
			"type":"VEC2"
		},
		{
			"bufferView":3,
			"componentType":5123,
			"count":374016,
			"type":"SCALAR"
		}
	],
	"bufferViews":[
		{
			"buffer":0,
			"byteLength":776376,
			"byteOffset":0,
			"target":34962
		},
		{
			"buffer":0,
			"byteLength":776376,
			"byteOffset":776376,
			"target":34962
		},
		{
			"buffer":0,
			"byteLength":517584,
			"byteOffset":1552752,
			"target":34962
		},
		{
			"buffer":0,
			"byteLength":748032,
			"byteOffset":2070336,
			"target":34963
		}
	],
	"samplers":[
		{
			"magFilter":9729,
			"minFilter":9987
		}
	],
	"buffers":[
		{
			"byteLength":2818368,
			"uri":"bird.bin"
		}
	]
}
