{
	"asset":{
		"generator":"Khronos glTF Blender I/O v4.0.44",
		"version":"2.0"
	},
	"extensionsUsed":[
		"KHR_materials_specular",
		"KHR_materials_ior"
	],
	"scene":0,
	"scenes":[
		{
			"name":"Scene",
			"nodes":[
				0
			]
		}
	],
	"nodes":[
		{
			"mesh":0,
			"name":"payphone",
			"rotation":[
				0.70710688829422,
				0,
				0,
				0.7071066498756409
			],
			"scale":[
				0.02539999969303608,
				0.02539999783039093,
				0.02539999783039093
			],
			"translation":[
				-0.20960605144500732,
				1.4380160570144653,
				0
			]
		}
	],
	"materials":[
		{
			"doubleSided":true,
			"extensions":{
				"KHR_materials_specular":{
					"specularColorFactor":[
						2.0,
						2.0,
						2.0
					]
				},
				"KHR_materials_ior":{
					"ior":1.4500000476837158
				}
			},
			"name":"payphone",
			"pbrMetallicRoughness":{
				"baseColorTexture":{
					"index":0
				},
				"roughnessFactor":0.7171573042869568
			}
		}
	],
	"meshes":[
		{
			"name":"Mesh",
			"primitives":[
				{
					"attributes":{
						"POSITION":0,
						"NORMAL":1,
						"TEXCOORD_0":2
					},
					"indices":3,
					"material":0
				}
			]
		}
	],
	"textures":[
		{
			"sampler":0,
			"source":0
		}
	],
	"images":[
		{
			"mimeType":"image/png",
			"name":"Map #0",
			"uri":"Map%200.png"
		}
	],
	"accessors":[
		{
			"bufferView":0,
			"componentType":5126,
			"count":1569,
			"max":[
				16.86473846435547,
				9.629999160766602,
				56.614810943603516
			],
			"min":[
				-0.36032581329345703,
				-7.999993324279785,
				-6.574267387390137
			],
			"type":"VEC3"
		},
		{
			"bufferView":1,
			"componentType":5126,
			"count":1569,
			"type":"VEC3"
		},
		{
			"bufferView":2,
			"componentType":5126,
			"count":1569,
			"type":"VEC2"
		},
		{
			"bufferView":3,
			"componentType":5123,
			"count":4719,
			"type":"SCALAR"
		}
	],
	"bufferViews":[
		{
			"buffer":0,
			"byteLength":18828,
			"byteOffset":0,
			"target":34962
		},
		{
			"buffer":0,
			"byteLength":18828,
			"byteOffset":18828,
			"target":34962
		},
		{
			"buffer":0,
			"byteLength":12552,
			"byteOffset":37656,
			"target":34962
		},
		{
			"buffer":0,
			"byteLength":9438,
			"byteOffset":50208,
			"target":34963
		}
	],
	"samplers":[
		{
			"magFilter":9729,
			"minFilter":9987
		}
	],
	"buffers":[
		{
			"byteLength":59648,
			"uri":"payphone.bin"
		}
	]
}
