{
	"asset":{
		"generator":"Khronos glTF Blender I/O v4.0.44",
		"version":"2.0"
	},
	"extensionsUsed":[
		"KHR_materials_transmission",
		"KHR_materials_specular"
	],
	"scene":0,
	"scenes":[
		{
			"name":"Scene",
			"nodes":[
				0
			]
		}
	],
	"nodes":[
		{
			"mesh":0,
			"name":"12273_Lion_v1_l3",
			"rotation":[
				0.00033026933670043945,
				0,
				0,
				1
			]
		}
	],
	"materials":[
		{
			"doubleSided":true,
			"extensions":{
				"KHR_materials_transmission":{
					"transmissionFactor":1
				},
				"KHR_materials_specular":{
					"specularFactor":0
				}
			},
			"name":"12273_Lion.001",
			"normalTexture":{
				"index":0,
				"scale":0
			},
			"pbrMetallicRoughness":{
				"baseColorTexture":{
					"index":1
				},
				"metallicFactor":0,
				"roughnessFactor":0.8999999761581421
			}
		},
		{
			"doubleSided":true,
			"extensions":{
				"KHR_materials_transmission":{
					"transmissionFactor":1
				},
				"KHR_materials_specular":{
					"specularFactor":0
				}
			},
			"name":"12273_Lion_mustache.001",
			"pbrMetallicRoughness":{
				"baseColorFactor":[
					0.30979999899864197,
					0.21570000052452087,
					0.11760000139474869,
					1
				],
				"metallicFactor":0,
				"roughnessFactor":0.8999999761581421
			}
		}
	],
	"meshes":[
		{
			"name":"12273_Lion_v1_l3.001",
			"primitives":[
				{
					"attributes":{
						"POSITION":0,
						"NORMAL":1,
						"TEXCOORD_0":2
					},
					"indices":3,
					"material":0
				},
				{
					"attributes":{
						"POSITION":4,
						"NORMAL":5,
						"TEXCOORD_0":6
					},
					"indices":7,
					"material":1
				}
			]
		}
	],
	"textures":[
		{
			"sampler":0,
			"source":0
		},
		{
			"sampler":0,
			"source":1
		}
	],
	"images":[
		{
			"mimeType":"image/jpeg",
			"name":"Map__9_Normal Bump",
			"uri":"Map__9_Normal%20Bump.jpg"
		},
		{
			"mimeType":"image/jpeg",
			"name":"12273_Lion_Diffuse",
			"uri":"12273_Lion_Diffuse.jpg"
		}
	],
	"accessors":[
		{
			"bufferView":0,
			"componentType":5126,
			"count":58038,
			"max":[
				21.779399871826172,
				109.45980072021484,
				105.3219985961914
			],
			"min":[
				-21.779399871826172,
				-0.3425000011920929,
				-105.28679656982422
			],
			"type":"VEC3"
		},
		{
			"bufferView":1,
			"componentType":5126,
			"count":58038,
			"type":"VEC3"
		},
		{
			"bufferView":2,
			"componentType":5126,
			"count":58038,
			"type":"VEC2"
		},
		{
			"bufferView":3,
			"componentType":5123,
			"count":341136,
			"type":"SCALAR"
		},
		{
			"bufferView":4,
			"componentType":5126,
			"count":9898,
			"max":[
				13.360199928283691,
				85.19010162353516,
				103.35479736328125
			],
			"min":[
				-13.439599990844727,
				78.689697265625,
				95.16580200195312
			],
			"type":"VEC3"
		},
		{
			"bufferView":5,
			"componentType":5126,
			"count":9898,
			"type":"VEC3"
		},
		{
			"bufferView":6,
			"componentType":5126,
			"count":9898,
			"type":"VEC2"
		},
		{
			"bufferView":7,
			"componentType":5123,
			"count":46080,
			"type":"SCALAR"
		}
	],
	"bufferViews":[
		{
			"buffer":0,
			"byteLength":696456,
			"byteOffset":0,
			"target":34962
		},
		{
			"buffer":0,
			"byteLength":696456,
			"byteOffset":696456,
			"target":34962
		},
		{
			"buffer":0,
			"byteLength":464304,
			"byteOffset":1392912,
			"target":34962
		},
		{
			"buffer":0,
			"byteLength":682272,
			"byteOffset":1857216,
			"target":34963
		},
		{
			"buffer":0,
			"byteLength":118776,
			"byteOffset":2539488,
			"target":34962
		},
		{
			"buffer":0,
			"byteLength":118776,
			"byteOffset":2658264,
			"target":34962
		},
		{
			"buffer":0,
			"byteLength":79184,
			"byteOffset":2777040,
			"target":34962
		},
		{
			"buffer":0,
			"byteLength":92160,
			"byteOffset":2856224,
			"target":34963
		}
	],
	"samplers":[
		{
			"magFilter":9729,
			"minFilter":9987
		}
	],
	"buffers":[
		{
			"byteLength":2948384,
			"uri":"lion.bin"
		}
	]
}
