{
	"asset":{
		"generator":"Khronos glTF Blender I/O v4.0.44",
		"version":"2.0"
	},
	"extensionsUsed":[
		"KHR_materials_transmission",
		"KHR_materials_specular"
	],
	"scene":0,
	"scenes":[
		{
			"name":"Scene",
			"nodes":[
				0
			]
		}
	],
	"nodes":[
		{
			"mesh":0,
			"name":"13080_Wrought_Iron_fence_with_brick_v1_L2",
			"rotation":[
				0,
				-0.9999952912330627,
				0,
				0.0030979313887655735
			],
			"translation":[
				7.267120361328125,
				1.8165340423583984,
				-2.0686252117156982
			]
		}
	],
	"materials":[
		{
			"doubleSided":true,
			"extensions":{
				"KHR_materials_transmission":{
					"transmissionFactor":1
				},
				"KHR_materials_specular":{
					"specularColorFactor":[
						1.7999998331069946,
						1.7999998331069946,
						1.7999998331069946
					]
				}
			},
			"name":"Wrought_Iron_fence_with_brick_1",
			"pbrMetallicRoughness":{
				"baseColorFactor":[
					0.15690000355243683,
					0.15690000355243683,
					0.15690000355243683,
					1
				],
				"metallicFactor":0,
				"roughnessFactor":0.7763931751251221
			}
		},
		{
			"doubleSided":true,
			"extensions":{
				"KHR_materials_transmission":{
					"transmissionFactor":1
				},
				"KHR_materials_specular":{
					"specularFactor":0.36000001430511475
				}
			},
			"name":"Wrought_Iron_fence_with_brick_2",
			"pbrMetallicRoughness":{
				"baseColorTexture":{
					"index":0
				},
				"metallicFactor":0,
				"roughnessFactor":0.8999999761581421
			}
		},
		{
			"doubleSided":true,
			"extensions":{
				"KHR_materials_transmission":{
					"transmissionFactor":1
				},
				"KHR_materials_specular":{
					"specularFactor":0.18000000715255737
				}
			},
			"name":"Wrought_Iron_fence_with_brick_3",
			"pbrMetallicRoughness":{
				"baseColorTexture":{
					"index":1
				},
				"metallicFactor":0,
				"roughnessFactor":0.8999999761581421
			}
		}
	],
	"meshes":[
		{
			"name":"13080_Wrought_Iron_fence_with_brick_v1_L2",
			"primitives":[
				{
					"attributes":{
						"POSITION":0,
						"NORMAL":1,
						"TEXCOORD_0":2
					},
					"indices":3,
					"material":0
				},
				{
					"attributes":{
						"POSITION":4,
						"NORMAL":5,
						"TEXCOORD_0":6
					},
					"indices":7,
					"material":1
				},
				{
					"attributes":{
						"POSITION":8,
						"NORMAL":9,
						"TEXCOORD_0":10
					},
					"indices":11,
					"material":2
				}
			]
		}
	],
	"textures":[
		{
			"sampler":0,
			"source":0
		},
		{
			"sampler":0,
			"source":1
		}
	],
	"images":[
		{
			"mimeType":"image/jpeg",
			"name":"Wrought_Iron_fence_with_brick_difuse",
			"uri":"Wrought_Iron_fence_with_brick_difuse.jpg"
		},
		{
			"mimeType":"image/jpeg",
			"name":"stone",
			"uri":"stone.jpg"
		}
	],
	"accessors":[
		{
			"bufferView":0,
			"componentType":5126,
			"count":41576,
			"max":[
				113.56189727783203,
				194.58709716796875,
				3.215399980545044
			],
			"min":[
				-114.21800231933594,
				5.807000160217285,
				-3.026099920272827
			],
			"type":"VEC3"
		},
		{
			"bufferView":1,
			"componentType":5126,
			"count":41576,
			"type":"VEC3"
		},
		{
			"bufferView":2,
			"componentType":5126,
			"count":41576,
			"type":"VEC2"
		},
		{
			"bufferView":3,
			"componentType":5123,
			"count":133320,
			"type":"SCALAR"
		},
		{
			"bufferView":4,
			"componentType":5126,
			"count":332,
			"max":[
				165.49229431152344,
				206.80499267578125,
				27.825700759887695
			],
			"min":[
				-166.08949279785156,
				5.185299873352051,
				-27.654300689697266
			],
			"type":"VEC3"
		},
		{
			"bufferView":5,
			"componentType":5126,
			"count":332,
			"type":"VEC3"
		},
		{
			"bufferView":6,
			"componentType":5126,
			"count":332,
			"type":"VEC2"
		},
		{
			"bufferView":7,
			"componentType":5123,
			"count":648,
			"type":"SCALAR"
		},
		{
			"bufferView":8,
			"componentType":5126,
			"count":532,
			"max":[
				169.07179260253906,
				215.03900146484375,
				31.40530014038086
			],
			"min":[
				-169.66900634765625,
				1.098099946975708,
				-31.233800888061523
			],
			"type":"VEC3"
		},
		{
			"bufferView":9,
			"componentType":5126,
			"count":532,
			"type":"VEC3"
		},
		{
			"bufferView":10,
			"componentType":5126,
			"count":532,
			"type":"VEC2"
		},
		{
			"bufferView":11,
			"componentType":5123,
			"count":1296,
			"type":"SCALAR"
		}
	],
	"bufferViews":[
		{
			"buffer":0,
			"byteLength":498912,
			"byteOffset":0,
			"target":34962
		},
		{
			"buffer":0,
			"byteLength":498912,
			"byteOffset":498912,
			"target":34962
		},
		{
			"buffer":0,
			"byteLength":332608,
			"byteOffset":997824,
			"target":34962
		},
		{
			"buffer":0,
			"byteLength":266640,
			"byteOffset":1330432,
			"target":34963
		},
		{
			"buffer":0,
			"byteLength":3984,
			"byteOffset":1597072,
			"target":34962
		},
		{
			"buffer":0,
			"byteLength":3984,
			"byteOffset":1601056,
			"target":34962
		},
		{
			"buffer":0,
			"byteLength":2656,
			"byteOffset":1605040,
			"target":34962
		},
		{
			"buffer":0,
			"byteLength":1296,
			"byteOffset":1607696,
			"target":34963
		},
		{
			"buffer":0,
			"byteLength":6384,
			"byteOffset":1608992,
			"target":34962
		},
		{
			"buffer":0,
			"byteLength":6384,
			"byteOffset":1615376,
			"target":34962
		},
		{
			"buffer":0,
			"byteLength":4256,
			"byteOffset":1621760,
			"target":34962
		},
		{
			"buffer":0,
			"byteLength":2592,
			"byteOffset":1626016,
			"target":34963
		}
	],
	"samplers":[
		{
			"magFilter":9729,
			"minFilter":9987
		}
	],
	"buffers":[
		{
			"byteLength":1628608,
			"uri":"ironfence.bin"
		}
	]
}
