{
	"asset":{
		"generator":"Khronos glTF Blender I/O v4.0.44",
		"version":"2.0"
	},
	"extensionsUsed":[
		"KHR_materials_transmission",
		"KHR_materials_specular"
	],
	"scene":0,
	"scenes":[
		{
			"name":"Scene",
			"nodes":[
				0
			]
		}
	],
	"nodes":[
		{
			"mesh":0,
			"name":"Camel",
			"rotation":[
				-0.025491217151284218,
				0,
				0,
				0.9996750354766846
			],
			"scale":[
				0.2934250831604004,
				0.2934250831604004,
				0.2934250831604004
			],
			"translation":[
				0,
				-4.668150424957275,
				0
			]
		}
	],
	"materials":[
		{
			"doubleSided":true,
			"extensions":{
				"KHR_materials_transmission":{
					"transmissionFactor":1
				},
				"KHR_materials_specular":{
					"specularFactor":0
				}
			},
			"name":"10007_Camel_v03",
			"pbrMetallicRoughness":{
				"baseColorTexture":{
					"index":0
				},
				"metallicFactor":0,
				"roughnessFactor":0.8999999761581421
			}
		}
	],
	"meshes":[
		{
			"name":"Camel",
			"primitives":[
				{
					"attributes":{
						"POSITION":0,
						"NORMAL":1,
						"TEXCOORD_0":2
					},
					"indices":3,
					"material":0
				}
			]
		}
	],
	"textures":[
		{
			"sampler":0,
			"source":0
		}
	],
	"images":[
		{
			"mimeType":"image/jpeg",
			"name":"10007_Camel_v03",
			"uri":"10007_Camel_v03.jpg"
		}
	],
	"accessors":[
		{
			"bufferView":0,
			"componentType":5126,
			"count":38274,
			"max":[
				96.23290252685547,
				624.2930297851562,
				362.5545959472656
			],
			"min":[
				-95.17150115966797,
				0.0019000000320374966,
				-337.7735900878906
			],
			"type":"VEC3"
		},
		{
			"bufferView":1,
			"componentType":5126,
			"count":38274,
			"type":"VEC3"
		},
		{
			"bufferView":2,
			"componentType":5126,
			"count":38274,
			"type":"VEC2"
		},
		{
			"bufferView":3,
			"componentType":5123,
			"count":213696,
			"type":"SCALAR"
		}
	],
	"bufferViews":[
		{
			"buffer":0,
			"byteLength":459288,
			"byteOffset":0,
			"target":34962
		},
		{
			"buffer":0,
			"byteLength":459288,
			"byteOffset":459288,
			"target":34962
		},
		{
			"buffer":0,
			"byteLength":306192,
			"byteOffset":918576,
			"target":34962
		},
		{
			"buffer":0,
			"byteLength":427392,
			"byteOffset":1224768,
			"target":34963
		}
	],
	"samplers":[
		{
			"magFilter":9729,
			"minFilter":9987
		}
	],
	"buffers":[
		{
			"byteLength":1652160,
			"uri":"camel.bin"
		}
	]
}
