{
	"asset":{
		"generator":"Khronos glTF Blender I/O v4.0.44",
		"version":"2.0"
	},
	"extensionsUsed":[
		"KHR_materials_specular",
		"KHR_materials_ior"
	],
	"scene":0,
	"scenes":[
		{
			"name":"Scene",
			"nodes":[
				0,
				1,
				2
			]
		}
	],
	"nodes":[
		{
			"mesh":0,
			"name":"Little_Signpost_OBJ",
			"rotation":[
				0.7071068286895752,
				0,
				0,
				0.7071068286895752
			],
			"translation":[
				0,
				-0.18613433837890625,
				0
			]
		},
		{
			"mesh":1,
			"name":"Tickets",
			"translation":[
				-1000000000,
				0,
				0
			]
		},
		{
			"mesh":2,
			"name":"Tickets.001",
			"rotation":[
				0.7071066498756409,
				0,
				0,
				0.7071069478988647
			],
			"scale":[
				25.786422729492188,
				24.3732852935791,
				24.3732852935791
			],
			"translation":[
				-42.21076202392578,
				125.66999816894531,
				15.253559112548828
			]
		}
	],
	"materials":[
		{
			"doubleSided":true,
			"extensions":{
				"KHR_materials_specular":{
					"specularFactor":0
				},
				"KHR_materials_ior":{
					"ior":1.4500000476837158
				}
			},
			"name":"pCube1SG",
			"pbrMetallicRoughness":{
				"baseColorTexture":{
					"index":0
				},
				"metallicFactor":0
			}
		}
	],
	"meshes":[
		{
			"name":"Little_Signpost_OBJ",
			"primitives":[
				{
					"attributes":{
						"POSITION":0,
						"NORMAL":1,
						"TEXCOORD_0":2
					},
					"indices":3,
					"material":0
				}
			]
		},
		{
			"name":"Text.004",
			"primitives":[
				{
					"attributes":{
						"POSITION":4,
						"NORMAL":5,
						"TEXCOORD_0":6
					},
					"indices":7
				}
			]
		},
		{
			"name":"Text.005",
			"primitives":[
				{
					"attributes":{
						"POSITION":8,
						"NORMAL":9,
						"TEXCOORD_0":10
					},
					"indices":11
				}
			]
		}
	],
	"textures":[
		{
			"sampler":0,
			"source":0
		}
	],
	"images":[
		{
			"mimeType":"image/jpeg",
			"name":"wood3",
			"uri":"wood3.jpg"
		}
	],
	"accessors":[
		{
			"bufferView":0,
			"componentType":5126,
			"count":80,
			"max":[
				62.61878967285156,
				13.567505836486816,
				-0.2902440130710602
			],
			"min":[
				-77.04886627197266,
				-5.445965766906738,
				-183.2627410888672
			],
			"type":"VEC3"
		},
		{
			"bufferView":1,
			"componentType":5126,
			"count":80,
			"type":"VEC3"
		},
		{
			"bufferView":2,
			"componentType":5126,
			"count":80,
			"type":"VEC2"
		},
		{
			"bufferView":3,
			"componentType":5123,
			"count":312,
			"type":"SCALAR"
		},
		{
			"bufferView":4,
			"componentType":5126,
			"count":177,
			"max":[
				1.915000081062317,
				0,
				0.009000000543892384
			],
			"min":[
				0.017000000923871994,
				0,
				-0.6820000410079956
			],
			"type":"VEC3"
		},
		{
			"bufferView":5,
			"componentType":5126,
			"count":177,
			"type":"VEC3"
		},
		{
			"bufferView":6,
			"componentType":5126,
			"count":177,
			"type":"VEC2"
		},
		{
			"bufferView":7,
			"componentType":5123,
			"count":513,
			"type":"SCALAR"
		},
		{
			"bufferView":8,
			"componentType":5126,
			"count":1554,
			"max":[
				3.646881580352783,
				0,
				0.02752688154578209
			],
			"min":[
				0.00602150522172451,
				0,
				-0.6150537729263306
			],
			"type":"VEC3"
		},
		{
			"bufferView":9,
			"componentType":5126,
			"count":1554,
			"type":"VEC3"
		},
		{
			"bufferView":10,
			"componentType":5126,
			"count":1554,
			"type":"VEC2"
		},
		{
			"bufferView":11,
			"componentType":5123,
			"count":4620,
			"type":"SCALAR"
		}
	],
	"bufferViews":[
		{
			"buffer":0,
			"byteLength":960,
			"byteOffset":0,
			"target":34962
		},
		{
			"buffer":0,
			"byteLength":960,
			"byteOffset":960,
			"target":34962
		},
		{
			"buffer":0,
			"byteLength":640,
			"byteOffset":1920,
			"target":34962
		},
		{
			"buffer":0,
			"byteLength":624,
			"byteOffset":2560,
			"target":34963
		},
		{
			"buffer":0,
			"byteLength":2124,
			"byteOffset":3184,
			"target":34962
		},
		{
			"buffer":0,
			"byteLength":2124,
			"byteOffset":5308,
			"target":34962
		},
		{
			"buffer":0,
			"byteLength":1416,
			"byteOffset":7432,
			"target":34962
		},
		{
			"buffer":0,
			"byteLength":1026,
			"byteOffset":8848,
			"target":34963
		},
		{
			"buffer":0,
			"byteLength":18648,
			"byteOffset":9876,
			"target":34962
		},
		{
			"buffer":0,
			"byteLength":18648,
			"byteOffset":28524,
			"target":34962
		},
		{
			"buffer":0,
			"byteLength":12432,
			"byteOffset":47172,
			"target":34962
		},
		{
			"buffer":0,
			"byteLength":9240,
			"byteOffset":59604,
			"target":34963
		}
	],
	"samplers":[
		{
			"magFilter":9729,
			"minFilter":9987
		}
	],
	"buffers":[
		{
			"byteLength":68844,
			"uri":"sign.bin"
		}
	]
}
