{
	"asset":{
		"generator":"Khronos glTF Blender I/O v4.0.44",
		"version":"2.0"
	},
	"extensionsUsed":[
		"KHR_materials_specular",
		"KHR_materials_ior"
	],
	"scene":0,
	"scenes":[
		{
			"name":"Scene",
			"nodes":[
				0
			]
		}
	],
	"nodes":[
		{
			"mesh":0,
			"name":"Tiger_Cylinder.014",
			"rotation":[
				0.7071068286895752,
				0,
				0,
				0.7071068286895752
			]
		}
	],
	"materials":[
		{
			"doubleSided":true,
			"extensions":{
				"KHR_materials_specular":{
					"specularFactor":0
				},
				"KHR_materials_ior":{
					"ior":1.4500000476837158
				}
			},
			"name":"Tiger",
			"pbrMetallicRoughness":{
				"baseColorTexture":{
					"index":0
				},
				"metallicFactor":0
			}
		}
	],
	"meshes":[
		{
			"name":"Tiger_Cylinder.014",
			"primitives":[
				{
					"attributes":{
						"POSITION":0,
						"NORMAL":1,
						"TEXCOORD_0":2
					},
					"indices":3,
					"material":0
				}
			]
		}
	],
	"textures":[
		{
			"sampler":0,
			"source":0
		}
	],
	"images":[
		{
			"mimeType":"image/png",
			"name":"Tiger_yellow",
			"uri":"Tiger_yellow.png"
		}
	],
	"accessors":[
		{
			"bufferView":0,
			"componentType":5126,
			"count":702,
			"max":[
				0.7691590189933777,
				2.291266918182373,
				0.0004290000069886446
			],
			"min":[
				-0.7691590189933777,
				-4.443781852722168,
				-3.6712539196014404
			],
			"type":"VEC3"
		},
		{
			"bufferView":1,
			"componentType":5126,
			"count":702,
			"type":"VEC3"
		},
		{
			"bufferView":2,
			"componentType":5126,
			"count":702,
			"type":"VEC2"
		},
		{
			"bufferView":3,
			"componentType":5123,
			"count":3588,
			"type":"SCALAR"
		}
	],
	"bufferViews":[
		{
			"buffer":0,
			"byteLength":8424,
			"byteOffset":0,
			"target":34962
		},
		{
			"buffer":0,
			"byteLength":8424,
			"byteOffset":8424,
			"target":34962
		},
		{
			"buffer":0,
			"byteLength":5616,
			"byteOffset":16848,
			"target":34962
		},
		{
			"buffer":0,
			"byteLength":7176,
			"byteOffset":22464,
			"target":34963
		}
	],
	"samplers":[
		{
			"magFilter":9729,
			"minFilter":9987
		}
	],
	"buffers":[
		{
			"byteLength":29640,
			"uri":"lion.bin"
		}
	]
}
