{
	"asset":{
		"generator":"Khronos glTF Blender I/O v4.0.44",
		"version":"2.0"
	},
	"extensionsUsed":[
		"KHR_materials_transmission",
		"KHR_materials_specular"
	],
	"scene":0,
	"scenes":[
		{
			"name":"Scene",
			"nodes":[
				0
			]
		}
	],
	"nodes":[
		{
			"mesh":0,
			"name":"10026_Horse_v01-it2",
			"rotation":[
				-0.9999968409538269,
				0,
				0,
				0.00251118466258049
			],
			"scale":[
				0.054055213928222656,
				0.054055217653512955,
				0.054055217653512955
			]
		}
	],
	"materials":[
		{
			"doubleSided":true,
			"extensions":{
				"KHR_materials_transmission":{
					"transmissionFactor":1
				},
				"KHR_materials_specular":{
					"specularFactor":0
				}
			},
			"name":"13___Default",
			"pbrMetallicRoughness":{
				"baseColorTexture":{
					"index":0
				},
				"metallicFactor":0,
				"roughnessFactor":0.8999999761581421
			}
		}
	],
	"meshes":[
		{
			"name":"10026_Horse_v01-it2",
			"primitives":[
				{
					"attributes":{
						"POSITION":0,
						"NORMAL":1,
						"TEXCOORD_0":2
					},
					"indices":3,
					"material":0
				}
			]
		}
	],
	"textures":[
		{
			"sampler":0,
			"source":0
		}
	],
	"images":[
		{
			"mimeType":"image/jpeg",
			"name":"Horse_v01",
			"uri":"Horse_v01.jpg"
		}
	],
	"accessors":[
		{
			"bufferView":0,
			"componentType":5126,
			"count":22310,
			"max":[
				213.3043975830078,
				1599.4085693359375,
				1115.604736328125
			],
			"min":[
				-213.30430603027344,
				0.27090001106262207,
				-675.8455200195312
			],
			"type":"VEC3"
		},
		{
			"bufferView":1,
			"componentType":5126,
			"count":22310,
			"type":"VEC3"
		},
		{
			"bufferView":2,
			"componentType":5126,
			"count":22310,
			"type":"VEC2"
		},
		{
			"bufferView":3,
			"componentType":5123,
			"count":126768,
			"type":"SCALAR"
		}
	],
	"bufferViews":[
		{
			"buffer":0,
			"byteLength":267720,
			"byteOffset":0,
			"target":34962
		},
		{
			"buffer":0,
			"byteLength":267720,
			"byteOffset":267720,
			"target":34962
		},
		{
			"buffer":0,
			"byteLength":178480,
			"byteOffset":535440,
			"target":34962
		},
		{
			"buffer":0,
			"byteLength":253536,
			"byteOffset":713920,
			"target":34963
		}
	],
	"samplers":[
		{
			"magFilter":9729,
			"minFilter":9987
		}
	],
	"buffers":[
		{
			"byteLength":967456,
			"uri":"horse.bin"
		}
	]
}
