{
	"asset":{
		"generator":"Khronos glTF Blender I/O v4.0.44",
		"version":"2.0"
	},
	"scene":0,
	"scenes":[
		{
			"name":"Scene",
			"nodes":[
				0,
				1,
				2,
				3,
				4,
				5,
				6,
				7,
				8,
				9,
				10
			]
		}
	],
	"nodes":[
		{
			"mesh":0,
			"name":"Cylinder001",
			"scale":[
				0.007285295054316521,
				0.007285295054316521,
				0.007285295054316521
			],
			"translation":[
				0.8386383056640625,
				0.02045380510389805,
				-0.016554705798625946
			]
		},
		{
			"mesh":1,
			"name":"Cylinder002",
			"scale":[
				0.007285295054316521,
				0.007285295054316521,
				0.007285295054316521
			],
			"translation":[
				-0.047374822199344635,
				0.02045380510389805,
				-0.016554705798625946
			]
		},
		{
			"mesh":2,
			"name":"Pin",
			"scale":[
				0.007285295054316521,
				0.007285295054316521,
				0.007285295054316521
			],
			"translation":[
				-0.047374822199344635,
				0.020453983917832375,
				-0.01655462570488453
			]
		},
		{
			"mesh":3,
			"name":"Pin001",
			"scale":[
				0.007285295054316521,
				0.007285295054316521,
				0.007285295054316521
			],
			"translation":[
				-0.047374822199344635,
				-0.18538567423820496,
				-0.01655462570488453
			]
		},
		{
			"mesh":4,
			"name":"Pin002",
			"scale":[
				0.007285295054316521,
				0.007285295054316521,
				0.007285295054316521
			],
			"translation":[
				-0.047374822199344635,
				-0.3912251591682434,
				-0.01655472256243229
			]
		},
		{
			"mesh":5,
			"name":"Pin003",
			"scale":[
				0.007285295054316521,
				0.007285295054316521,
				0.007285295054316521
			],
			"translation":[
				-0.047374822199344635,
				-0.6901763677597046,
				-0.01655472256243229
			]
		},
		{
			"mesh":6,
			"name":"Pin004",
			"scale":[
				0.007285295054316521,
				0.007285295054316521,
				0.007285295054316521
			],
			"translation":[
				0.839123010635376,
				-0.6901763677597046,
				-0.01655472256243229
			]
		},
		{
			"mesh":7,
			"name":"Pin005",
			"scale":[
				0.007285295054316521,
				0.007285295054316521,
				0.007285295054316521
			],
			"translation":[
				0.839123010635376,
				-0.18538567423820496,
				-0.01655462570488453
			]
		},
		{
			"mesh":8,
			"name":"Pin006",
			"scale":[
				0.007285295054316521,
				0.007285295054316521,
				0.007285295054316521
			],
			"translation":[
				0.839123010635376,
				-0.3912251591682434,
				-0.01655472256243229
			]
		},
		{
			"mesh":9,
			"name":"Pin007",
			"scale":[
				0.007285295054316521,
				0.007285295054316521,
				0.007285295054316521
			],
			"translation":[
				0.839123010635376,
				0.020453983917832375,
				-0.01655462570488453
			]
		},
		{
			"mesh":10,
			"name":"Fence",
			"rotation":[
				0.7071068286895752,
				0,
				0,
				0.7071068286895752
			],
			"scale":[
				0.007285295054316521,
				0.007285295054316521,
				0.007285295054316521
			],
			"translation":[
				0.394814670085907,
				0.45990923047065735,
				-0.018456334248185158
			]
		}
	],
	"meshes":[
		{
			"name":"Mesh.001",
			"primitives":[
				{
					"attributes":{
						"POSITION":0,
						"NORMAL":1,
						"TEXCOORD_0":2
					},
					"indices":3
				}
			]
		},
		{
			"name":"Mesh.002",
			"primitives":[
				{
					"attributes":{
						"POSITION":4,
						"NORMAL":5,
						"TEXCOORD_0":6
					},
					"indices":3
				}
			]
		},
		{
			"name":"Mesh.003",
			"primitives":[
				{
					"attributes":{
						"POSITION":7,
						"NORMAL":8,
						"TEXCOORD_0":9
					},
					"indices":10
				}
			]
		},
		{
			"name":"Mesh.004",
			"primitives":[
				{
					"attributes":{
						"POSITION":11,
						"NORMAL":12,
						"TEXCOORD_0":13
					},
					"indices":10
				}
			]
		},
		{
			"name":"Mesh.005",
			"primitives":[
				{
					"attributes":{
						"POSITION":14,
						"NORMAL":15,
						"TEXCOORD_0":16
					},
					"indices":10
				}
			]
		},
		{
			"name":"Mesh.006",
			"primitives":[
				{
					"attributes":{
						"POSITION":17,
						"NORMAL":18,
						"TEXCOORD_0":19
					},
					"indices":10
				}
			]
		},
		{
			"name":"Mesh.007",
			"primitives":[
				{
					"attributes":{
						"POSITION":20,
						"NORMAL":21,
						"TEXCOORD_0":22
					},
					"indices":10
				}
			]
		},
		{
			"name":"Mesh.008",
			"primitives":[
				{
					"attributes":{
						"POSITION":23,
						"NORMAL":24,
						"TEXCOORD_0":25
					},
					"indices":10
				}
			]
		},
		{
			"name":"Mesh.009",
			"primitives":[
				{
					"attributes":{
						"POSITION":26,
						"NORMAL":27,
						"TEXCOORD_0":28
					},
					"indices":10
				}
			]
		},
		{
			"name":"Mesh.010",
			"primitives":[
				{
					"attributes":{
						"POSITION":29,
						"NORMAL":30,
						"TEXCOORD_0":31
					},
					"indices":10
				}
			]
		},
		{
			"name":"Mesh.011",
			"primitives":[
				{
					"attributes":{
						"POSITION":32,
						"NORMAL":33,
						"TEXCOORD_0":34
					},
					"indices":35
				}
			]
		}
	],
	"accessors":[
		{
			"bufferView":0,
			"componentType":5126,
			"count":154,
			"max":[
				1.4738355875015259,
				124.08403015136719,
				1.4514448642730713
			],
			"min":[
				-1.4738355875015259,
				0,
				-1.4514447450637817
			],
			"type":"VEC3"
		},
		{
			"bufferView":1,
			"componentType":5126,
			"count":154,
			"type":"VEC3"
		},
		{
			"bufferView":2,
			"componentType":5126,
			"count":154,
			"type":"VEC2"
		},
		{
			"bufferView":3,
			"componentType":5123,
			"count":648,
			"type":"SCALAR"
		},
		{
			"bufferView":4,
			"componentType":5126,
			"count":154,
			"max":[
				1.4738355875015259,
				124.08403015136719,
				1.4514448642730713
			],
			"min":[
				-1.4738355875015259,
				0,
				-1.4514447450637817
			],
			"type":"VEC3"
		},
		{
			"bufferView":5,
			"componentType":5126,
			"count":154,
			"type":"VEC3"
		},
		{
			"bufferView":6,
			"componentType":5126,
			"count":154,
			"type":"VEC2"
		},
		{
			"bufferView":7,
			"componentType":5126,
			"count":132,
			"max":[
				1.6338354349136353,
				112.07051086425781,
				2.1803901195526123
			],
			"min":[
				-1.6338354349136353,
				111.24783325195312,
				-1.6090143918991089
			],
			"type":"VEC3"
		},
		{
			"bufferView":8,
			"componentType":5126,
			"count":132,
			"type":"VEC3"
		},
		{
			"bufferView":9,
			"componentType":5126,
			"count":132,
			"type":"VEC2"
		},
		{
			"bufferView":10,
			"componentType":5123,
			"count":360,
			"type":"SCALAR"
		},
		{
			"bufferView":11,
			"componentType":5126,
			"count":132,
			"max":[
				1.6338354349136353,
				112.07051086425781,
				2.1803901195526123
			],
			"min":[
				-1.6338354349136353,
				111.24783325195312,
				-1.6090143918991089
			],
			"type":"VEC3"
		},
		{
			"bufferView":12,
			"componentType":5126,
			"count":132,
			"type":"VEC3"
		},
		{
			"bufferView":13,
			"componentType":5126,
			"count":132,
			"type":"VEC2"
		},
		{
			"bufferView":14,
			"componentType":5126,
			"count":132,
			"max":[
				1.6338354349136353,
				112.07051086425781,
				2.1803901195526123
			],
			"min":[
				-1.6338354349136353,
				111.24783325195312,
				-1.6090143918991089
			],
			"type":"VEC3"
		},
		{
			"bufferView":15,
			"componentType":5126,
			"count":132,
			"type":"VEC3"
		},
		{
			"bufferView":16,
			"componentType":5126,
			"count":132,
			"type":"VEC2"
		},
		{
			"bufferView":17,
			"componentType":5126,
			"count":132,
			"max":[
				1.6338354349136353,
				112.07051086425781,
				2.1803901195526123
			],
			"min":[
				-1.6338354349136353,
				111.24783325195312,
				-1.6090143918991089
			],
			"type":"VEC3"
		},
		{
			"bufferView":18,
			"componentType":5126,
			"count":132,
			"type":"VEC3"
		},
		{
			"bufferView":19,
			"componentType":5126,
			"count":132,
			"type":"VEC2"
		},
		{
			"bufferView":20,
			"componentType":5126,
			"count":132,
			"max":[
				1.6338354349136353,
				112.07051086425781,
				2.1803901195526123
			],
			"min":[
				-1.6338354349136353,
				111.24783325195312,
				-1.6090143918991089
			],
			"type":"VEC3"
		},
		{
			"bufferView":21,
			"componentType":5126,
			"count":132,
			"type":"VEC3"
		},
		{
			"bufferView":22,
			"componentType":5126,
			"count":132,
			"type":"VEC2"
		},
		{
			"bufferView":23,
			"componentType":5126,
			"count":132,
			"max":[
				1.6338354349136353,
				112.07051086425781,
				2.1803901195526123
			],
			"min":[
				-1.6338354349136353,
				111.24783325195312,
				-1.6090143918991089
			],
			"type":"VEC3"
		},
		{
			"bufferView":24,
			"componentType":5126,
			"count":132,
			"type":"VEC3"
		},
		{
			"bufferView":25,
			"componentType":5126,
			"count":132,
			"type":"VEC2"
		},
		{
			"bufferView":26,
			"componentType":5126,
			"count":132,
			"max":[
				1.6338354349136353,
				112.07051086425781,
				2.1803901195526123
			],
			"min":[
				-1.6338354349136353,
				111.24783325195312,
				-1.6090143918991089
			],
			"type":"VEC3"
		},
		{
			"bufferView":27,
			"componentType":5126,
			"count":132,
			"type":"VEC3"
		},
		{
			"bufferView":28,
			"componentType":5126,
			"count":132,
			"type":"VEC2"
		},
		{
			"bufferView":29,
			"componentType":5126,
			"count":132,
			"max":[
				1.6338354349136353,
				112.07051086425781,
				2.1803901195526123
			],
			"min":[
				-1.6338354349136353,
				111.24783325195312,
				-1.6090143918991089
			],
			"type":"VEC3"
		},
		{
			"bufferView":30,
			"componentType":5126,
			"count":132,
			"type":"VEC3"
		},
		{
			"bufferView":31,
			"componentType":5126,
			"count":132,
			"type":"VEC2"
		},
		{
			"bufferView":32,
			"componentType":5126,
			"count":66448,
			"max":[
				60.21211624145508,
				0.15000000596046448,
				60.21213150024414
			],
			"min":[
				-60.21213150024414,
				-0.15000000596046448,
				-60.21211624145508
			],
			"type":"VEC3"
		},
		{
			"bufferView":33,
			"componentType":5126,
			"count":66448,
			"type":"VEC3"
		},
		{
			"bufferView":34,
			"componentType":5126,
			"count":66448,
			"type":"VEC2"
		},
		{
			"bufferView":35,
			"componentType":5125,
			"count":134856,
			"type":"SCALAR"
		}
	],
	"bufferViews":[
		{
			"buffer":0,
			"byteLength":1848,
			"byteOffset":0,
			"target":34962
		},
		{
			"buffer":0,
			"byteLength":1848,
			"byteOffset":1848,
			"target":34962
		},
		{
			"buffer":0,
			"byteLength":1232,
			"byteOffset":3696,
			"target":34962
		},
		{
			"buffer":0,
			"byteLength":1296,
			"byteOffset":4928,
			"target":34963
		},
		{
			"buffer":0,
			"byteLength":1848,
			"byteOffset":6224,
			"target":34962
		},
		{
			"buffer":0,
			"byteLength":1848,
			"byteOffset":8072,
			"target":34962
		},
		{
			"buffer":0,
			"byteLength":1232,
			"byteOffset":9920,
			"target":34962
		},
		{
			"buffer":0,
			"byteLength":1584,
			"byteOffset":11152,
			"target":34962
		},
		{
			"buffer":0,
			"byteLength":1584,
			"byteOffset":12736,
			"target":34962
		},
		{
			"buffer":0,
			"byteLength":1056,
			"byteOffset":14320,
			"target":34962
		},
		{
			"buffer":0,
			"byteLength":720,
			"byteOffset":15376,
			"target":34963
		},
		{
			"buffer":0,
			"byteLength":1584,
			"byteOffset":16096,
			"target":34962
		},
		{
			"buffer":0,
			"byteLength":1584,
			"byteOffset":17680,
			"target":34962
		},
		{
			"buffer":0,
			"byteLength":1056,
			"byteOffset":19264,
			"target":34962
		},
		{
			"buffer":0,
			"byteLength":1584,
			"byteOffset":20320,
			"target":34962
		},
		{
			"buffer":0,
			"byteLength":1584,
			"byteOffset":21904,
			"target":34962
		},
		{
			"buffer":0,
			"byteLength":1056,
			"byteOffset":23488,
			"target":34962
		},
		{
			"buffer":0,
			"byteLength":1584,
			"byteOffset":24544,
			"target":34962
		},
		{
			"buffer":0,
			"byteLength":1584,
			"byteOffset":26128,
			"target":34962
		},
		{
			"buffer":0,
			"byteLength":1056,
			"byteOffset":27712,
			"target":34962
		},
		{
			"buffer":0,
			"byteLength":1584,
			"byteOffset":28768,
			"target":34962
		},
		{
			"buffer":0,
			"byteLength":1584,
			"byteOffset":30352,
			"target":34962
		},
		{
			"buffer":0,
			"byteLength":1056,
			"byteOffset":31936,
			"target":34962
		},
		{
			"buffer":0,
			"byteLength":1584,
			"byteOffset":32992,
			"target":34962
		},
		{
			"buffer":0,
			"byteLength":1584,
			"byteOffset":34576,
			"target":34962
		},
		{
			"buffer":0,
			"byteLength":1056,
			"byteOffset":36160,
			"target":34962
		},
		{
			"buffer":0,
			"byteLength":1584,
			"byteOffset":37216,
			"target":34962
		},
		{
			"buffer":0,
			"byteLength":1584,
			"byteOffset":38800,
			"target":34962
		},
		{
			"buffer":0,
			"byteLength":1056,
			"byteOffset":40384,
			"target":34962
		},
		{
			"buffer":0,
			"byteLength":1584,
			"byteOffset":41440,
			"target":34962
		},
		{
			"buffer":0,
			"byteLength":1584,
			"byteOffset":43024,
			"target":34962
		},
		{
			"buffer":0,
			"byteLength":1056,
			"byteOffset":44608,
			"target":34962
		},
		{
			"buffer":0,
			"byteLength":797376,
			"byteOffset":45664,
			"target":34962
		},
		{
			"buffer":0,
			"byteLength":797376,
			"byteOffset":843040,
			"target":34962
		},
		{
			"buffer":0,
			"byteLength":531584,
			"byteOffset":1640416,
			"target":34962
		},
		{
			"buffer":0,
			"byteLength":539424,
			"byteOffset":2172000,
			"target":34963
		}
	],
	"buffers":[
		{
			"byteLength":2711424,
			"uri":"fence3.bin"
		}
	]
}
