{
	"asset":{
		"generator":"Khronos glTF Blender I/O v4.0.44",
		"version":"2.0"
	},
	"scene":0,
	"scenes":[
		{
			"name":"Scene",
			"nodes":[
				0
			]
		}
	],
	"nodes":[
		{
			"mesh":0,
			"name":"fence_01_obj",
			"rotation":[
				0.7071068286895752,
				0,
				0,
				0.7071068286895752
			]
		}
	],
	"materials":[
		{
			"doubleSided":true,
			"name":"Material.001",
			"pbrMetallicRoughness":{
				"baseColorTexture":{
					"index":0
				},
				"metallicFactor":0,
				"roughnessFactor":0.5
			}
		}
	],
	"meshes":[
		{
			"name":"fence_01_obj",
			"primitives":[
				{
					"attributes":{
						"POSITION":0,
						"NORMAL":1,
						"TEXCOORD_0":2
					},
					"indices":3,
					"material":0
				}
			]
		}
	],
	"textures":[
		{
			"sampler":0,
			"source":0
		}
	],
	"images":[
		{
			"mimeType":"image/jpeg",
			"name":"met",
			"uri":"met.jpg"
		}
	],
	"accessors":[
		{
			"bufferView":0,
			"componentType":5126,
			"count":1818,
			"max":[
				422.09600830078125,
				2.444498062133789,
				0
			],
			"min":[
				-10.440837860107422,
				-47.46019744873047,
				-406.36175537109375
			],
			"type":"VEC3"
		},
		{
			"bufferView":1,
			"componentType":5126,
			"count":1818,
			"type":"VEC3"
		},
		{
			"bufferView":2,
			"componentType":5126,
			"count":1818,
			"type":"VEC2"
		},
		{
			"bufferView":3,
			"componentType":5123,
			"count":5532,
			"type":"SCALAR"
		}
	],
	"bufferViews":[
		{
			"buffer":0,
			"byteLength":21816,
			"byteOffset":0,
			"target":34962
		},
		{
			"buffer":0,
			"byteLength":21816,
			"byteOffset":21816,
			"target":34962
		},
		{
			"buffer":0,
			"byteLength":14544,
			"byteOffset":43632,
			"target":34962
		},
		{
			"buffer":0,
			"byteLength":11064,
			"byteOffset":58176,
			"target":34963
		}
	],
	"samplers":[
		{
			"magFilter":9729,
			"minFilter":9987
		}
	],
	"buffers":[
		{
			"byteLength":69240,
			"uri":"fence4.bin"
		}
	]
}
