{
	"asset":{
		"generator":"Khronos glTF Blender I/O v4.0.44",
		"version":"2.0"
	},
	"extensionsUsed":[
		"KHR_materials_transmission",
		"KHR_materials_specular"
	],
	"scene":0,
	"scenes":[
		{
			"name":"Scene",
			"nodes":[
				0
			]
		}
	],
	"nodes":[
		{
			"mesh":0,
			"name":"12221_Cat_v1_l3",
			"rotation":[
				-0.05007202550768852,
				0.020908227190375328,
				-0.028965724632143974,
				0.9981065392494202
			]
		}
	],
	"materials":[
		{
			"doubleSided":true,
			"extensions":{
				"KHR_materials_transmission":{
					"transmissionFactor":1
				},
				"KHR_materials_specular":{
					"specularFactor":0
				}
			},
			"name":"Cat",
			"normalTexture":{
				"index":0,
				"scale":0
			},
			"pbrMetallicRoughness":{
				"baseColorTexture":{
					"index":1
				},
				"metallicFactor":0,
				"roughnessFactor":0.8999999761581421
			}
		}
	],
	"meshes":[
		{
			"name":"12221_Cat_v1_l3",
			"primitives":[
				{
					"attributes":{
						"POSITION":0,
						"NORMAL":1,
						"TEXCOORD_0":2
					},
					"indices":3,
					"material":0
				}
			]
		}
	],
	"textures":[
		{
			"sampler":0,
			"source":0
		},
		{
			"sampler":0,
			"source":1
		}
	],
	"images":[
		{
			"mimeType":"image/jpeg",
			"name":"Cat_bump",
			"uri":"Cat_bump.jpg"
		},
		{
			"mimeType":"image/jpeg",
			"name":"Cat_diffuse",
			"uri":"Cat_diffuse.jpg"
		}
	],
	"accessors":[
		{
			"bufferView":0,
			"componentType":5126,
			"count":36530,
			"max":[
				6.277599811553955,
				37.61259841918945,
				22.255399703979492
			],
			"min":[
				-6.277599811553955,
				0.0052999998442828655,
				-38.627899169921875
			],
			"type":"VEC3"
		},
		{
			"bufferView":1,
			"componentType":5126,
			"count":36530,
			"type":"VEC3"
		},
		{
			"bufferView":2,
			"componentType":5126,
			"count":36530,
			"type":"VEC2"
		},
		{
			"bufferView":3,
			"componentType":5123,
			"count":211728,
			"type":"SCALAR"
		}
	],
	"bufferViews":[
		{
			"buffer":0,
			"byteLength":438360,
			"byteOffset":0,
			"target":34962
		},
		{
			"buffer":0,
			"byteLength":438360,
			"byteOffset":438360,
			"target":34962
		},
		{
			"buffer":0,
			"byteLength":292240,
			"byteOffset":876720,
			"target":34962
		},
		{
			"buffer":0,
			"byteLength":423456,
			"byteOffset":1168960,
			"target":34963
		}
	],
	"samplers":[
		{
			"magFilter":9729,
			"minFilter":9987
		}
	],
	"buffers":[
		{
			"byteLength":1592416,
			"uri":"cat.bin"
		}
	]
}
