{
	"asset":{
		"generator":"Khronos glTF Blender I/O v4.0.44",
		"version":"2.0"
	},
	"scene":0,
	"scenes":[
		{
			"name":"Scene",
			"nodes":[
				4
			]
		}
	],
	"nodes":[
		{
			"mesh":0,
			"name":"Object_4"
		},
		{
			"children":[
				0
			],
			"name":"Trough_0"
		},
		{
			"children":[
				1
			],
			"name":"GLTF_SceneRootNode",
			"rotation":[
				0.70710688829422,
				0,
				0,
				0.7071066498756409
			]
		},
		{
			"children":[
				2
			],
			"name":"root"
		},
		{
			"children":[
				3
			],
			"name":"Sketchfab_model",
			"rotation":[
				-0.70710688829422,
				0,
				0,
				0.7071066498756409
			]
		}
	],
	"materials":[
		{
			"doubleSided":true,
			"name":"Material.001",
			"pbrMetallicRoughness":{
				"baseColorTexture":{
					"index":0
				},
				"metallicFactor":0
			}
		}
	],
	"meshes":[
		{
			"name":"Object_0",
			"primitives":[
				{
					"attributes":{
						"POSITION":0,
						"NORMAL":1,
						"TEXCOORD_0":2,
						"TEXCOORD_1":3,
						"TEXCOORD_2":4,
						"TEXCOORD_3":5,
						"TEXCOORD_4":6
					},
					"indices":7,
					"material":0
				}
			]
		}
	],
	"textures":[
		{
			"sampler":0,
			"source":0
		}
	],
	"images":[
		{
			"mimeType":"image/png",
			"name":"Material_baseColor",
			"uri":"Material_baseColor.png"
		}
	],
	"accessors":[
		{
			"bufferView":0,
			"componentType":5126,
			"count":2051,
			"max":[
				1.198150634765625,
				0.3755350410938263,
				0.3903888165950775
			],
			"min":[
				-1.196731448173523,
				0,
				-0.3903888165950775
			],
			"type":"VEC3"
		},
		{
			"bufferView":1,
			"componentType":5126,
			"count":2051,
			"type":"VEC3"
		},
		{
			"bufferView":2,
			"componentType":5126,
			"count":2051,
			"type":"VEC2"
		},
		{
			"bufferView":3,
			"componentType":5126,
			"count":2051,
			"type":"VEC2"
		},
		{
			"bufferView":4,
			"componentType":5126,
			"count":2051,
			"type":"VEC2"
		},
		{
			"bufferView":5,
			"componentType":5126,
			"count":2051,
			"type":"VEC2"
		},
		{
			"bufferView":6,
			"componentType":5126,
			"count":2051,
			"type":"VEC2"
		},
		{
			"bufferView":7,
			"componentType":5123,
			"count":8238,
			"type":"SCALAR"
		}
	],
	"bufferViews":[
		{
			"buffer":0,
			"byteLength":24612,
			"byteOffset":0,
			"target":34962
		},
		{
			"buffer":0,
			"byteLength":24612,
			"byteOffset":24612,
			"target":34962
		},
		{
			"buffer":0,
			"byteLength":16408,
			"byteOffset":49224,
			"target":34962
		},
		{
			"buffer":0,
			"byteLength":16408,
			"byteOffset":65632,
			"target":34962
		},
		{
			"buffer":0,
			"byteLength":16408,
			"byteOffset":82040,
			"target":34962
		},
		{
			"buffer":0,
			"byteLength":16408,
			"byteOffset":98448,
			"target":34962
		},
		{
			"buffer":0,
			"byteLength":16408,
			"byteOffset":114856,
			"target":34962
		},
		{
			"buffer":0,
			"byteLength":16476,
			"byteOffset":131264,
			"target":34963
		}
	],
	"samplers":[
		{
			"magFilter":9729,
			"minFilter":9987
		}
	],
	"buffers":[
		{
			"byteLength":147740,
			"uri":"manger.bin"
		}
	]
}
