{
  "accessors": [
    {
      "bufferView": 2,
      "componentType": 5126,
      "count": 2045,
      "max": [
        1.198150634765625,
        0.3755350410938263,
        0.3903888165950775
      ],
      "min": [
        -1.196731448173523,
        0.0,
        -0.3903888165950775
      ],
      "type": "VEC3"
    },
    {
      "bufferView": 2,
      "byteOffset": 24540,
      "componentType": 5126,
      "count": 2045,
      "max": [
        0.9998447895050049,
        0.9999983906745911,
        0.999978244304657
      ],
      "min": [
        -0.9994180202484131,
        -1.0,
        -0.9977207779884338
      ],
      "type": "VEC3"
    },
    {
      "bufferView": 3,
      "componentType": 5126,
      "count": 2045,
      "max": [
        1.0,
        0.9928351044654846,
        0.9999998807907104,
        1.0
      ],
      "min": [
        -1.0,
        -0.9988669157028198,
        -0.9999991655349731,
        1.0
      ],
      "type": "VEC4"
    },
    {
      "bufferView": 1,
      "componentType": 5126,
      "count": 2045,
      "max": [
        0.9921589493751526,
        0.9841746687889099
      ],
      "min": [
        0.007814662531018257,
        0.007808506488800049
      ],
      "type": "VEC2"
    },
    {
      "bufferView": 1,
      "byteOffset": 16360,
      "componentType": 5126,
      "count": 2045,
      "max": [
        0.9992917776107788,
        0.9948866367340088
      ],
      "min": [
        0.0008321770583279431,
        0.0008200553711503744
      ],
      "type": "VEC2"
    },
    {
      "bufferView": 1,
      "byteOffset": 32720,
      "componentType": 5126,
      "count": 2045,
      "max": [
        0.9921589493751526,
        0.9841746687889099
      ],
      "min": [
        0.007814662531018257,
        0.007808506488800049
      ],
      "type": "VEC2"
    },
    {
      "bufferView": 1,
      "byteOffset": 49080,
      "componentType": 5126,
      "count": 2045,
      "max": [
        0.9921589493751526,
        0.9841746687889099
      ],
      "min": [
        0.007814662531018257,
        0.007808506488800049
      ],
      "type": "VEC2"
    },
    {
      "bufferView": 1,
      "byteOffset": 65440,
      "componentType": 5126,
      "count": 2045,
      "max": [
        0.9921589493751526,
        0.9841746687889099
      ],
      "min": [
        0.007814662531018257,
        0.007808506488800049
      ],
      "type": "VEC2"
    },
    {
      "bufferView": 0,
      "componentType": 5125,
      "count": 8238,
      "type": "SCALAR"
    }
  ],
  "asset": {
    "extras": {
      "author": "dalroron (https://sketchfab.com/dalroron)",
      "license": "CC-BY-4.0 (http://creativecommons.org/licenses/by/4.0/)",
      "source": "https://sketchfab.com/3d-models/feeding-trough-3a71a799538d47eea735793eaa2ac2c2",
      "title": "Feeding Trough"
    },
    "generator": "Sketchfab-15.37.0",
    "version": "2.0"
  },
  "bufferViews": [
    {
      "buffer": 0,
      "byteLength": 32952,
      "name": "floatBufferViews",
      "target": 34963
    },
    {
      "buffer": 0,
      "byteLength": 81800,
      "byteOffset": 32952,
      "byteStride": 8,
      "name": "floatBufferViews",
      "target": 34962
    },
    {
      "buffer": 0,
      "byteLength": 49080,
      "byteOffset": 114752,
      "byteStride": 12,
      "name": "floatBufferViews",
      "target": 34962
    },
    {
      "buffer": 0,
      "byteLength": 32720,
      "byteOffset": 163832,
      "byteStride": 16,
      "name": "floatBufferViews",
      "target": 34962
    }
  ],
  "buffers": [
    {
      "byteLength": 196552,
      "uri": "scene.bin"
    }
  ],
  "images": [
    {
      "uri": "textures/Material_baseColor.png"
    },
    {
      "uri": "textures/Material_metallicRoughness.png"
    },
    {
      "uri": "textures/Material_normal.png"
    }
  ],
  "materials": [
    {
      "doubleSided": true,
      "name": "Material",
      "normalTexture": {
        "index": 2
      },
      "pbrMetallicRoughness": {
        "baseColorTexture": {
          "index": 0
        },
        "metallicFactor": 0.0,
        "metallicRoughnessTexture": {
          "index": 1
        }
      }
    }
  ],
  "meshes": [
    {
      "name": "Object_0",
      "primitives": [
        {
          "attributes": {
            "NORMAL": 1,
            "POSITION": 0,
            "TANGENT": 2,
            "TEXCOORD_0": 3,
            "TEXCOORD_1": 4,
            "TEXCOORD_2": 5,
            "TEXCOORD_3": 6,
            "TEXCOORD_4": 7
          },
          "indices": 8,
          "material": 0,
          "mode": 4
        }
      ]
    }
  ],
  "nodes": [
    {
      "children": [
        1
      ],
      "matrix": [
        1.0,
        0.0,
        0.0,
        0.0,
        0.0,
        2.220446049250313e-16,
        -1.0,
        0.0,
        0.0,
        1.0,
        2.220446049250313e-16,
        0.0,
        0.0,
        0.0,
        0.0,
        1.0
      ],
      "name": "Sketchfab_model"
    },
    {
      "children": [
        2
      ],
      "name": "root"
    },
    {
      "children": [
        3
      ],
      "matrix": [
        1.0,
        0.0,
        0.0,
        0.0,
        0.0,
        2.220446049250313e-16,
        1.0,
        0.0,
        0.0,
        -1.0,
        2.220446049250313e-16,
        0.0,
        0.0,
        0.0,
        0.0,
        1.0
      ],
      "name": "GLTF_SceneRootNode"
    },
    {
      "children": [
        4
      ],
      "name": "Trough_0"
    },
    {
      "mesh": 0,
      "name": "Object_4"
    }
  ],
  "samplers": [
    {
      "magFilter": 9729,
      "minFilter": 9987,
      "wrapS": 10497,
      "wrapT": 10497
    }
  ],
  "scene": 0,
  "scenes": [
    {
      "name": "Sketchfab_Scene",
      "nodes": [
        0
      ]
    }
  ],
  "textures": [
    {
      "sampler": 0,
      "source": 0
    },
    {
      "sampler": 0,
      "source": 1
    },
    {
      "sampler": 0,
      "source": 2
    }
  ]
}
