{
	"asset":{
		"generator":"Khronos glTF Blender I/O v4.0.44",
		"version":"2.0"
	},
	"extensionsUsed":[
		"KHR_materials_transmission",
		"KHR_materials_specular"
	],
	"scene":0,
	"scenes":[
		{
			"name":"Scene",
			"nodes":[
				0
			]
		}
	],
	"nodes":[
		{
			"mesh":0,
			"name":"13573_Musk_Deer_v1_L3",
			"rotation":[
				-0.9999986290931702,
				0,
				0,
				0.0016495420131832361
			]
		}
	],
	"materials":[
		{
			"doubleSided":true,
			"extensions":{
				"KHR_materials_transmission":{
					"transmissionFactor":1
				},
				"KHR_materials_specular":{
					"specularFactor":0.18000000715255737
				}
			},
			"name":"musk_deer",
			"normalTexture":{
				"index":0,
				"scale":0
			},
			"pbrMetallicRoughness":{
				"baseColorTexture":{
					"index":1
				},
				"metallicFactor":0,
				"roughnessFactor":0.8999999761581421
			}
		}
	],
	"meshes":[
		{
			"name":"13573_Musk_Deer_v1_L3",
			"primitives":[
				{
					"attributes":{
						"POSITION":0,
						"NORMAL":1,
						"TEXCOORD_0":2
					},
					"indices":3,
					"material":0
				}
			]
		}
	],
	"textures":[
		{
			"sampler":0,
			"source":0
		},
		{
			"sampler":0,
			"source":1
		}
	],
	"images":[
		{
			"mimeType":"image/jpeg",
			"name":"Musk_Deer_bump",
			"uri":"Musk_Deer_bump.jpg"
		},
		{
			"mimeType":"image/jpeg",
			"name":"Musk_Deer_diff",
			"uri":"Musk_Deer_diff.jpg"
		}
	],
	"accessors":[
		{
			"bufferView":0,
			"componentType":5126,
			"count":41698,
			"max":[
				9.004500389099121,
				65.01940155029297,
				44.14580154418945
			],
			"min":[
				-9.004500389099121,
				-0.16519999504089355,
				-26.996400833129883
			],
			"type":"VEC3"
		},
		{
			"bufferView":1,
			"componentType":5126,
			"count":41698,
			"type":"VEC3"
		},
		{
			"bufferView":2,
			"componentType":5126,
			"count":41698,
			"type":"VEC2"
		},
		{
			"bufferView":3,
			"componentType":5123,
			"count":236304,
			"type":"SCALAR"
		}
	],
	"bufferViews":[
		{
			"buffer":0,
			"byteLength":500376,
			"byteOffset":0,
			"target":34962
		},
		{
			"buffer":0,
			"byteLength":500376,
			"byteOffset":500376,
			"target":34962
		},
		{
			"buffer":0,
			"byteLength":333584,
			"byteOffset":1000752,
			"target":34962
		},
		{
			"buffer":0,
			"byteLength":472608,
			"byteOffset":1334336,
			"target":34963
		}
	],
	"samplers":[
		{
			"magFilter":9729,
			"minFilter":9987
		}
	],
	"buffers":[
		{
			"byteLength":1806944,
			"uri":"deer.bin"
		}
	]
}
