{
	"asset":{
		"generator":"Khronos glTF Blender I/O v4.0.44",
		"version":"2.0"
	},
	"extensionsUsed":[
		"KHR_materials_transmission",
		"KHR_materials_specular"
	],
	"scene":0,
	"scenes":[
		{
			"name":"Scene",
			"nodes":[
				0
			]
		}
	],
	"nodes":[
		{
			"mesh":0,
			"name":"12961_White-Tailed_Deer_v1_l2",
			"rotation":[
				-0.9999940395355225,
				0,
				0,
				0.0034509077668190002
			]
		}
	],
	"materials":[
		{
			"doubleSided":true,
			"extensions":{
				"KHR_materials_transmission":{
					"transmissionFactor":1
				},
				"KHR_materials_specular":{
					"specularFactor":0.18000000715255737
				}
			},
			"name":"12961_White_TailedDeer",
			"pbrMetallicRoughness":{
				"baseColorTexture":{
					"index":0
				},
				"metallicFactor":0,
				"roughnessFactor":0.8999999761581421
			}
		}
	],
	"meshes":[
		{
			"name":"12961_White-Tailed_Deer_v1_l2",
			"primitives":[
				{
					"attributes":{
						"POSITION":0,
						"NORMAL":1,
						"TEXCOORD_0":2
					},
					"indices":3,
					"material":0
				}
			]
		}
	],
	"textures":[
		{
			"sampler":0,
			"source":0
		}
	],
	"images":[
		{
			"mimeType":"image/jpeg",
			"name":"12961_White-TailedDeer_diffuse",
			"uri":"12961_White-TailedDeer_diffuse.jpg"
		}
	],
	"accessors":[
		{
			"bufferView":0,
			"componentType":5126,
			"count":31199,
			"max":[
				22.75480079650879,
				43.802398681640625,
				6.833000183105469
			],
			"min":[
				-25.69849967956543,
				-0.028300000354647636,
				-6.833000183105469
			],
			"type":"VEC3"
		},
		{
			"bufferView":1,
			"componentType":5126,
			"count":31199,
			"type":"VEC3"
		},
		{
			"bufferView":2,
			"componentType":5126,
			"count":31199,
			"type":"VEC2"
		},
		{
			"bufferView":3,
			"componentType":5123,
			"count":177936,
			"type":"SCALAR"
		}
	],
	"bufferViews":[
		{
			"buffer":0,
			"byteLength":374388,
			"byteOffset":0,
			"target":34962
		},
		{
			"buffer":0,
			"byteLength":374388,
			"byteOffset":374388,
			"target":34962
		},
		{
			"buffer":0,
			"byteLength":249592,
			"byteOffset":748776,
			"target":34962
		},
		{
			"buffer":0,
			"byteLength":355872,
			"byteOffset":998368,
			"target":34963
		}
	],
	"samplers":[
		{
			"magFilter":9729,
			"minFilter":9987
		}
	],
	"buffers":[
		{
			"byteLength":1354240,
			"uri":"deer2.bin"
		}
	]
}
