{
	"asset":{
		"generator":"Khronos glTF Blender I/O v4.0.44",
		"version":"2.0"
	},
	"extensionsUsed":[
		"KHR_materials_transmission",
		"KHR_materials_specular"
	],
	"scene":0,
	"scenes":[
		{
			"name":"Scene",
			"nodes":[
				0
			]
		}
	],
	"nodes":[
		{
			"mesh":0,
			"name":"12249_Bird_v1_L2",
			"rotation":[
				-0.0004477501497603953,
				0,
				0,
				1
			]
		}
	],
	"materials":[
		{
			"doubleSided":true,
			"extensions":{
				"KHR_materials_transmission":{
					"transmissionFactor":1
				},
				"KHR_materials_specular":{
					"specularFactor":0.5400000214576721
				}
			},
			"name":"12249_Bird_v1",
			"pbrMetallicRoughness":{
				"baseColorTexture":{
					"index":0
				},
				"metallicFactor":0,
				"roughnessFactor":0.869615912437439
			}
		}
	],
	"meshes":[
		{
			"name":"12249_Bird_v1_L2",
			"primitives":[
				{
					"attributes":{
						"POSITION":0,
						"NORMAL":1,
						"TEXCOORD_0":2
					},
					"indices":3,
					"material":0
				}
			]
		}
	],
	"textures":[
		{
			"sampler":0,
			"source":0
		}
	],
	"images":[
		{
			"mimeType":"image/jpeg",
			"name":"12249_Bird_v1_diff",
			"uri":"12249_Bird_v1_diff.jpg"
		}
	],
	"accessors":[
		{
			"bufferView":0,
			"componentType":5126,
			"count":9760,
			"max":[
				14.037199974060059,
				54.7151985168457,
				22.525400161743164
			],
			"min":[
				-14.037199974060059,
				-0.04580000042915344,
				-30.744199752807617
			],
			"type":"VEC3"
		},
		{
			"bufferView":1,
			"componentType":5126,
			"count":9760,
			"type":"VEC3"
		},
		{
			"bufferView":2,
			"componentType":5126,
			"count":9760,
			"type":"VEC2"
		},
		{
			"bufferView":3,
			"componentType":5123,
			"count":53568,
			"type":"SCALAR"
		}
	],
	"bufferViews":[
		{
			"buffer":0,
			"byteLength":117120,
			"byteOffset":0,
			"target":34962
		},
		{
			"buffer":0,
			"byteLength":117120,
			"byteOffset":117120,
			"target":34962
		},
		{
			"buffer":0,
			"byteLength":78080,
			"byteOffset":234240,
			"target":34962
		},
		{
			"buffer":0,
			"byteLength":107136,
			"byteOffset":312320,
			"target":34963
		}
	],
	"samplers":[
		{
			"magFilter":9729,
			"minFilter":9987
		}
	],
	"buffers":[
		{
			"byteLength":419456,
			"uri":"duck.bin"
		}
	]
}
