{
	"asset":{
		"generator":"Khronos glTF Blender I/O v4.0.44",
		"version":"2.0"
	},
	"extensionsUsed":[
		"KHR_materials_transmission",
		"KHR_materials_specular"
	],
	"scene":0,
	"scenes":[
		{
			"name":"Scene",
			"nodes":[
				0
			]
		}
	],
	"nodes":[
		{
			"mesh":0,
			"name":"13576_Tibetan_Bear_v1_l3.001",
			"rotation":[
				0.9811038970947266,
				0.026800045743584633,
				-0.19006042182445526,
				0.024371309205889702
			],
			"scale":[
				0.020449064671993256,
				0.020449064671993256,
				0.020449064671993256
			],
			"translation":[
				-1.548332691192627,
				0.2907380759716034,
				2.232550859451294
			]
		}
	],
	"materials":[
		{
			"doubleSided":true,
			"extensions":{
				"KHR_materials_transmission":{
					"transmissionFactor":1
				},
				"KHR_materials_specular":{
					"specularFactor":0
				}
			},
			"name":"Bear_mat.006",
			"normalTexture":{
				"index":0,
				"scale":0
			},
			"pbrMetallicRoughness":{
				"baseColorTexture":{
					"index":1
				},
				"metallicFactor":0,
				"roughnessFactor":0.8999999761581421
			}
		}
	],
	"meshes":[
		{
			"name":"13576_Tibetan_Bear_v1_l3.006",
			"primitives":[
				{
					"attributes":{
						"POSITION":0,
						"NORMAL":1,
						"TEXCOORD_0":2
					},
					"indices":3,
					"material":0
				}
			]
		}
	],
	"textures":[
		{
			"sampler":0,
			"source":0
		},
		{
			"sampler":0,
			"source":1
		}
	],
	"images":[
		{
			"mimeType":"image/jpeg",
			"name":"Tibetan_Bear_bump",
			"uri":"Tibetan_Bear_bump.jpg"
		},
		{
			"mimeType":"image/jpeg",
			"name":"Tibetan_bear_diffuse",
			"uri":"Tibetan_bear_diffuse.jpg"
		}
	],
	"accessors":[
		{
			"bufferView":0,
			"componentType":5126,
			"count":51964,
			"max":[
				14.057999610900879,
				46.97990036010742,
				44.41849899291992
			],
			"min":[
				-14.057999610900879,
				0.3046000003814697,
				-29.17609977722168
			],
			"type":"VEC3"
		},
		{
			"bufferView":1,
			"componentType":5126,
			"count":51964,
			"type":"VEC3"
		},
		{
			"bufferView":2,
			"componentType":5126,
			"count":51964,
			"type":"VEC2"
		},
		{
			"bufferView":3,
			"componentType":5123,
			"count":296064,
			"type":"SCALAR"
		}
	],
	"bufferViews":[
		{
			"buffer":0,
			"byteLength":623568,
			"byteOffset":0,
			"target":34962
		},
		{
			"buffer":0,
			"byteLength":623568,
			"byteOffset":623568,
			"target":34962
		},
		{
			"buffer":0,
			"byteLength":415712,
			"byteOffset":1247136,
			"target":34962
		},
		{
			"buffer":0,
			"byteLength":592128,
			"byteOffset":1662848,
			"target":34963
		}
	],
	"samplers":[
		{
			"magFilter":9729,
			"minFilter":9987
		}
	],
	"buffers":[
		{
			"byteLength":2254976,
			"uri":"bear3.bin"
		}
	]
}
